<svg width="542" height="480" viewBox="0 0 542 480" fill="none" xmlns="http://www.w3.org/2000/svg">
<g clip-path="url(#clip0_7_242)">
<path d="M174.313 189.257C180.837 194.987 183.101 197.514 189.494 205.903C194.023 207.367 196.419 207.899 201.211 208.299C200.679 222.68 199.078 229.473 195.35 233.47C192.154 237.067 184.96 238.399 168.852 238.399C142.749 238.399 138.357 236.535 138.357 226.014V189.257H131.169C130.237 201.111 127.841 208.436 122.512 216.293C114.923 227.214 103.47 234.934 86.0241 240.663C83.2279 232.675 80.4317 227.746 75.1025 221.485C83.7597 219.752 88.0199 218.157 93.3437 215.361C104.665 209.236 109.858 201.643 111.053 189.257H99.468C94.1389 189.257 90.2789 189.389 86.6823 189.789C87.0825 186.061 87.2142 182.596 87.2142 177.404V156.63C87.2142 151.701 87.0825 148.504 86.6823 144.776C90.2789 145.176 94.4074 145.308 101.064 145.308H127.83V138.784C110.874 139.493 96.8034 139.893 85.6186 139.984C84.0178 132.528 82.5538 128.267 79.4943 121.875H91.0794C130.895 121.875 165.65 118.547 180.168 113.354L192.685 131.732C189.489 132.264 188.826 132.401 184.697 133.196C170.579 135.592 161.527 136.793 148.078 137.725V145.313H176.177C182.833 145.313 186.961 145.182 190.558 144.781C190.158 148.11 190.026 151.574 190.026 156.635V177.409C190.026 182.738 190.158 186.467 190.558 189.795C186.83 189.394 182.97 189.263 177.772 189.263H174.313V189.257ZM127.836 162.891H106.93V171.68H127.836V162.891ZM170.184 171.68V162.891H148.078V171.68H170.184ZM172.449 189.257H157.936V197.646L172.449 189.257ZM172.98 216.424C167.52 208.568 163.791 204.039 157.93 198.447V216.424C157.93 219.621 158.994 220.021 168.715 220.021C175.771 220.021 178.968 219.489 180.168 218.157C180.832 217.225 181.1 216.161 181.369 211.232L172.98 216.424Z" fill="#F2B9D5"/>
<path d="M225.313 188.457C222.386 189.521 220.922 189.921 217.056 191.253C214.392 182.596 212.396 177.936 208.536 171.943C225.982 168.083 241.427 161.158 253.944 151.969H239.031C239.431 150.237 239.563 148.241 239.563 146.509V140.516H227.578C220.521 140.516 216.256 140.785 211.464 141.316V121.743C215.724 122.275 220.653 122.543 227.578 122.543H239.563V120.811C239.563 118.547 239.431 116.682 239.031 114.55H259.674C259.405 116.546 259.273 118.41 259.273 120.811V122.543H283.776V120.943C283.776 118.81 283.644 116.682 283.244 114.681H303.886C303.618 116.814 303.486 118.541 303.486 120.943V122.543H317.067C324.123 122.543 329.052 122.275 333.181 121.743V141.316C328.252 140.785 323.992 140.516 317.067 140.516H303.486V146.377C303.486 148.51 303.618 149.974 303.886 152.106H289.105C301.09 160.764 316.403 167.156 335.977 171.285C331.98 178.21 330.116 182.601 327.588 191.127C323.728 189.926 322.259 189.394 319.463 188.462V201.643C314.534 201.111 310.274 200.843 303.086 200.843H281.511V224.281C281.511 230.011 281.78 235.334 282.312 239.731H260.474C261.006 235.34 261.406 229.61 261.406 224.281V200.843H241.295C234.239 200.843 229.974 201.111 225.313 201.643V188.462V188.457ZM257.009 211.095C248.489 221.88 238.231 230.274 224.381 237.73C220.121 230.937 216.525 226.809 210.532 221.748C219.321 218.02 222.78 216.156 227.978 212.159C234.102 207.767 236.767 205.103 239.563 201.237L257.009 211.09V211.095ZM261.401 183.265V180.2C261.401 175.671 261.132 172.612 260.732 169.679C252.475 175.803 247.014 179.131 237.83 183.26H261.401V183.265ZM261.001 145.445H281.775C282.575 146.377 282.838 146.646 283.77 147.441V140.516H259.268V147.309L261.001 145.445ZM281.775 169.147C277.778 166.219 275.914 164.618 271.385 160.358C266.993 164.618 265.392 166.087 261.396 169.147H281.769H281.775ZM306.145 183.265C296.693 179.005 289.763 175.14 282.175 169.415C281.643 172.48 281.511 175.276 281.511 180.2V183.265H306.145ZM303.349 201.506C310.674 210.563 318.662 215.624 333.844 221.079C328.784 226.409 326.119 229.868 321.327 237.857C311.606 233.065 306.677 230 300.421 224.939C294.165 220.011 290.832 216.814 286.44 211.49L303.354 201.501L303.349 201.506Z" fill="#F2B9D5"/>
<path d="M397.225 120.811C397.225 117.883 397.093 116.019 396.693 113.886H418.663C418.262 115.882 418.131 117.746 418.131 121.074V125.071H447.293C455.682 125.071 461.943 124.803 466.072 124.271V144.781C460.743 144.381 453.555 144.113 447.694 144.113H372.586V149.974C372.586 196.182 368.326 220.284 356.872 239.726C351.411 232.27 347.283 228.009 340.495 223.081C349.553 206.835 352.08 189.389 352.08 145.045C352.08 135.055 351.949 129.063 351.68 124.402C356.872 124.803 362.601 125.066 369.258 125.066H397.225V120.806V120.811ZM403.218 161.559C403.218 153.834 403.086 150.637 402.686 147.046H423.328C423.06 149.71 422.928 151.706 422.796 156.103H448.631C456.088 156.103 460.485 155.835 463.681 155.44V175.15C459.152 174.75 454.229 174.487 449.3 174.487H422.802V184.076H445.972C451.964 184.076 454.892 183.944 458.22 183.544C457.688 188.473 457.557 192.333 457.557 198.457V221.095C457.557 229.752 457.825 234.544 458.357 239.336H437.183V234.144H395.903V239.205H374.997C375.529 235.345 375.798 229.616 375.798 222.291V195.524C375.798 190.463 375.666 186.867 375.398 183.539C378.857 183.939 381.791 184.071 387.515 184.071H403.228V161.564L403.218 161.559ZM395.893 215.756H437.172V202.707H395.893V215.756Z" fill="#F2B9D5"/>
<path d="M72.5645 382.596C72.4749 383.481 71.9641 384.176 71.0268 384.676C70.2527 385.092 69.5471 385.182 68.9099 384.945C68.2727 384.708 67.704 384.26 67.209 383.597C66.7087 382.933 66.1506 382.022 65.5292 380.864L64.3707 378.694L63.2122 376.524C62.5908 375.366 62.1432 374.392 61.8694 373.612C61.5955 372.828 61.5376 372.106 61.6956 371.448C61.8536 370.79 62.317 370.253 63.0911 369.837C64.1916 369.247 65.1764 369.268 66.0505 369.9C66.9246 370.532 67.8199 371.622 68.7309 373.181C70.2369 372.375 71.8957 371.459 73.7019 370.442L77.1037 368.583C76.8457 368.252 76.6034 367.867 76.377 367.441C75.7767 366.319 75.4923 365.25 75.5186 364.229C75.545 363.207 76.0505 362.433 77.0247 361.912C77.7988 361.496 78.7098 361.438 79.7524 361.727C80.8004 362.017 81.8272 362.607 82.8383 363.491C83.8493 364.376 84.6866 365.44 85.3501 366.682C86.0347 367.962 86.1979 369.205 85.8346 370.411C85.4713 371.611 84.5655 372.601 83.1226 373.375L71.922 379.373C72.4433 380.637 72.6592 381.717 72.5697 382.601L72.5645 382.596Z" fill="white"/>
<path d="M76.3298 386.414C76.1086 385.419 76.4772 384.645 77.4356 384.086C78.4098 383.518 79.2892 383.591 80.0739 384.307C80.8532 385.029 81.701 386.161 82.6068 387.72L83.4125 389.094C84.2497 390.527 84.7658 391.743 84.9606 392.738C85.1555 393.734 84.7816 394.508 83.8495 395.055C82.9333 395.592 82.0907 395.545 81.3166 394.913C80.5478 394.281 79.7632 393.286 78.9733 391.933L77.9886 390.179C77.1039 388.662 76.551 387.409 76.3298 386.414Z" fill="white"/>
<path d="M80.7216 405.403C80.4583 404.002 80.5689 402.67 81.0639 401.416C81.5589 400.158 82.4541 399.105 83.739 398.246C84.8132 397.53 85.9559 397.13 87.1566 397.04C88.3572 396.951 89.5052 397.125 90.5952 397.562C90.7321 395.724 91.6274 394.26 93.2861 393.159C94.1497 392.586 95.1555 392.285 96.3035 392.259C97.4515 392.233 98.6152 392.559 99.8001 393.244C100.985 393.923 102.059 394.987 103.012 396.43C103.765 397.562 104.234 398.757 104.424 400C104.613 401.248 104.492 402.406 104.071 403.475C103.644 404.55 102.933 405.413 101.933 406.077C101.164 406.588 100.332 406.951 99.4367 407.172C98.5415 407.393 97.7727 407.409 97.125 407.23C97.0513 408.331 96.7248 409.373 96.1455 410.353C95.561 411.332 94.8132 412.133 93.8864 412.743C92.6331 413.576 91.2903 413.965 89.8527 413.923C88.4099 413.881 87.0407 413.46 85.7348 412.665C84.4288 411.869 83.3388 410.806 82.4594 409.479C81.5589 408.162 80.9744 406.809 80.7111 405.403H80.7216ZM88.5573 407.478C89.2366 407.609 89.8475 407.493 90.3899 407.135C90.9481 406.767 91.2956 406.245 91.4325 405.571C91.5694 404.897 91.4536 404.286 91.0797 403.728C90.7216 403.191 90.2056 402.849 89.5262 402.701C88.8469 402.554 88.2308 402.67 87.6726 403.038C87.1355 403.396 86.7932 403.918 86.6563 404.608C86.5194 405.297 86.6247 405.908 86.9828 406.445C87.3514 407.004 87.878 407.346 88.5573 407.478ZM96.1824 402.375C96.7827 402.507 97.3198 402.412 97.799 402.091C98.2782 401.769 98.5784 401.316 98.6995 400.727C98.8206 400.137 98.7153 399.589 98.3835 399.089C98.0623 398.61 97.6095 398.31 97.0197 398.188C96.4299 398.067 95.8928 398.167 95.4083 398.489C94.9238 398.81 94.6289 399.263 94.5078 399.853C94.3867 400.442 94.4868 400.979 94.808 401.464C95.1292 401.943 95.5873 402.248 96.1824 402.38V402.375Z" fill="white"/>
<path d="M94.3446 423.318C94.0655 421.464 94.3077 419.6 95.066 417.715C95.8243 415.835 97.0197 414.123 98.6416 412.58C100.163 411.132 101.885 410.074 103.807 409.4C105.724 408.726 107.631 408.557 109.516 408.899C111.401 409.242 113.033 410.142 114.413 411.601C115.793 413.059 116.635 414.713 116.925 416.567C117.22 418.42 116.988 420.284 116.225 422.17C115.466 424.055 114.266 425.771 112.623 427.33C111.132 428.747 109.421 429.789 107.483 430.463C105.545 431.137 103.634 431.311 101.738 430.974C99.8422 430.637 98.2045 429.742 96.8248 428.289C95.4452 426.83 94.6131 425.176 94.334 423.323L94.3446 423.318ZM104.566 424.813C105.73 424.566 106.856 423.928 107.946 422.896C109.021 421.88 109.705 420.806 110.016 419.668C110.321 418.536 110.037 417.504 109.168 416.588C108.294 415.666 107.283 415.329 106.135 415.577C104.987 415.824 103.876 416.456 102.802 417.472C102.217 418.031 101.717 418.678 101.306 419.415C100.895 420.158 100.685 420.922 100.669 421.711C100.658 422.501 100.943 423.207 101.533 423.828C102.391 424.734 103.402 425.061 104.566 424.813Z" fill="white"/>
<path d="M118.82 438.473C117.662 437.004 116.94 435.261 116.667 433.249C116.393 431.237 116.577 429.163 117.225 427.019C117.83 425.008 118.799 423.233 120.132 421.696C121.464 420.158 123.033 419.068 124.839 418.431C126.645 417.794 128.51 417.762 130.432 418.341C132.354 418.92 133.902 419.942 135.076 421.406C136.251 422.87 136.977 424.602 137.251 426.614C137.525 428.626 137.335 430.716 136.682 432.88C136.093 434.845 135.124 436.603 133.776 438.152C132.427 439.7 130.853 440.795 129.041 441.443C127.23 442.091 125.366 442.127 123.444 441.548C121.522 440.969 119.979 439.947 118.82 438.473ZM128.436 434.697C129.326 433.902 129.989 432.791 130.421 431.353C130.848 429.942 130.911 428.662 130.616 427.525C130.321 426.388 129.563 425.635 128.346 425.271C127.13 424.903 126.087 425.113 125.208 425.898C124.334 426.682 123.681 427.783 123.254 429.2C123.023 429.974 122.912 430.785 122.922 431.632C122.933 432.48 123.128 433.249 123.512 433.944C123.891 434.639 124.492 435.108 125.313 435.355C126.509 435.713 127.551 435.498 128.436 434.702V434.697Z" fill="white"/>
<path d="M138.573 438.82C137.72 438.267 137.436 437.457 137.73 436.388C138.025 435.298 138.705 434.734 139.768 434.697C140.832 434.66 142.228 434.881 143.965 435.35L145.503 435.766C147.109 436.203 148.326 436.709 149.163 437.283C150 437.857 150.274 438.668 149.99 439.716C149.71 440.742 149.079 441.295 148.083 441.385C147.088 441.474 145.835 441.311 144.323 440.9L142.396 440.342C140.706 439.884 139.431 439.373 138.578 438.82H138.573Z" fill="white"/>
<path d="M155.666 448.947C154.15 447.63 153.107 445.966 152.538 443.955C151.97 441.943 152.001 439.663 152.638 437.109C153.154 435.05 154.102 433.239 155.492 431.685C156.877 430.126 158.536 429.021 160.464 428.357C162.391 427.694 164.381 427.62 166.44 428.136C168.389 428.62 170.032 429.421 171.375 430.527C172.717 431.632 173.649 432.917 174.176 434.381C174.703 435.845 174.771 437.351 174.387 438.894C174.139 439.879 173.644 440.658 172.896 441.232C172.149 441.806 171.243 441.964 170.195 441.701C169.41 441.506 168.842 441.222 168.484 440.843C168.125 440.463 167.783 439.942 167.451 439.263C167.12 438.583 166.772 438.052 166.403 437.662C166.035 437.272 165.44 436.977 164.613 436.767C163.56 436.503 162.559 436.677 161.611 437.283C160.664 437.894 160.048 438.768 159.763 439.91C159.458 441.143 159.516 442.259 159.942 443.254C160.369 444.255 161.132 444.887 162.233 445.161C163.086 445.371 163.792 445.419 164.355 445.297C164.918 445.176 165.54 444.95 166.219 444.618C166.788 444.334 167.299 444.139 167.741 444.034C168.183 443.928 168.694 443.949 169.279 444.097C170.174 444.318 170.811 444.771 171.19 445.445C171.569 446.124 171.648 446.898 171.432 447.772C171.174 448.805 170.553 449.695 169.568 450.448C168.584 451.201 167.357 451.706 165.893 451.959C164.423 452.212 162.875 452.133 161.243 451.727C159.047 451.18 157.193 450.247 155.677 448.931L155.666 448.947Z" fill="white"/>
<path d="M177.62 454.197C176.108 452.77 175.034 451.027 174.397 448.978C173.76 446.93 173.67 444.797 174.123 442.58C174.581 440.458 175.519 438.615 176.935 437.041C178.357 435.471 180.074 434.35 182.096 433.681C184.118 433.012 186.182 432.917 188.299 433.396C190.374 433.844 192.175 434.792 193.707 436.251C195.234 437.709 196.308 439.479 196.925 441.559C197.541 443.639 197.599 445.792 197.098 448.02C196.624 450.111 195.671 451.922 194.239 453.444C192.807 454.966 191.09 456.045 189.089 456.682C187.088 457.32 185.045 457.425 182.965 457.004C180.911 456.561 179.126 455.629 177.62 454.197ZM187.456 449.926C188.357 449.347 188.931 448.462 189.178 447.262C189.452 446.045 189.315 444.987 188.762 444.081C188.209 443.175 187.414 442.607 186.382 442.37C185.345 442.133 184.386 442.306 183.496 442.886C182.606 443.465 182.027 444.365 181.753 445.582C181.485 446.777 181.627 447.825 182.18 448.731C182.733 449.637 183.528 450.205 184.56 450.442C185.598 450.674 186.561 450.505 187.462 449.926H187.456Z" fill="white"/>
<path d="M206.688 461.432C206.256 460.937 206.009 460.326 205.94 459.605C205.887 458.936 205.919 458.225 206.03 457.472C206.146 456.719 206.34 455.661 206.609 454.307C206.862 453.038 206.999 452.091 207.02 451.459C207.041 450.827 206.856 450.474 206.472 450.395C206.019 450.305 205.661 450.437 205.403 450.8C205.14 451.158 204.94 451.701 204.797 452.428C204.666 453.086 204.55 454.134 204.45 455.571C204.418 455.845 204.376 456.287 204.329 456.888C204.281 457.488 204.218 457.983 204.139 458.368C203.923 459.452 203.523 460.174 202.949 460.532C202.37 460.89 201.617 460.974 200.69 460.785C199.579 460.563 198.736 459.774 198.162 458.41C197.588 457.046 197.278 455.424 197.23 453.544C197.183 451.664 197.33 449.853 197.683 448.11C198.099 446.029 198.784 444.155 199.742 442.486C200.701 440.816 201.891 439.563 203.318 438.715C204.745 437.873 206.319 437.62 208.041 437.962C209.489 438.252 210.553 438.931 211.238 439.995C211.917 441.064 212.28 442.259 212.322 443.581C212.817 442.385 213.597 441.422 214.65 440.69C215.703 439.958 216.941 439.737 218.368 440.021C220.063 440.358 221.417 441.174 222.412 442.47C223.412 443.765 224.05 445.413 224.318 447.425C224.587 449.431 224.476 451.669 223.981 454.134C223.66 455.74 223.102 457.351 222.307 458.973C221.512 460.59 220.595 461.885 219.553 462.854C218.51 463.823 217.473 464.202 216.43 463.997C215.482 463.807 214.803 463.423 214.397 462.849C213.997 462.275 213.902 461.443 214.118 460.358C214.218 459.858 214.492 458.952 214.945 457.63C215.414 456.219 215.714 455.197 215.84 454.56C216.135 453.091 215.887 452.275 215.092 452.117C214.687 452.038 214.366 452.312 214.129 452.949C213.897 453.586 213.623 454.639 213.302 456.103C213.081 457.214 212.875 458.131 212.681 458.857C212.486 459.584 212.249 460.237 211.97 460.816C211.659 461.438 211.196 461.896 210.579 462.196C209.963 462.496 209.263 462.57 208.473 462.412C207.704 462.259 207.104 461.933 206.672 461.432H206.688Z" fill="white"/>
<path d="M241.911 465.097C241.738 466.119 241.074 466.84 239.926 467.251C238.778 467.662 236.919 467.646 234.349 467.204C231.143 466.651 228.531 465.408 226.509 463.465C224.492 461.527 223.876 458.257 224.665 453.66C225.066 451.338 225.824 449.315 226.94 447.588C228.057 445.861 229.5 444.587 231.269 443.765C233.038 442.944 235.071 442.733 237.367 443.128C240.437 443.655 242.517 444.502 243.607 445.661C244.697 446.819 245.124 448.083 244.887 449.447C244.776 450.084 244.518 450.642 244.107 451.122C243.697 451.601 243.149 451.933 242.459 452.122C241.864 452.301 241.137 452.317 240.274 452.17L239.357 451.975C239.178 451.922 238.92 451.864 238.578 451.806C237.393 451.601 236.424 451.653 235.671 451.954C234.918 452.254 234.339 452.817 233.939 453.639C234.902 453.76 235.771 453.886 236.545 454.018C238.841 454.413 240.321 454.739 240.979 454.992C241.727 455.282 242.269 455.692 242.612 456.219C242.954 456.746 243.075 457.32 242.965 457.93C242.859 458.547 242.564 459.036 242.08 459.41C241.595 459.784 240.927 459.979 240.084 460C239.426 460.026 237.867 459.826 235.408 459.405C234.407 459.231 233.702 459.1 233.296 459.005C233.744 460.627 234.934 461.606 236.867 461.938C236.982 461.959 237.246 461.98 237.662 462.006C238.215 462.054 238.683 462.112 239.073 462.18C239.731 462.291 240.258 462.454 240.642 462.659C241.674 463.186 242.096 463.997 241.911 465.092V465.097Z" fill="white"/>
<path d="M246.129 462.196C245.213 461.748 244.839 460.974 244.997 459.879C245.16 458.762 245.766 458.12 246.819 457.957C247.867 457.794 249.284 457.846 251.069 458.104L252.643 458.336C254.286 458.578 255.561 458.931 256.461 459.4C257.361 459.868 257.73 460.642 257.572 461.717C257.419 462.77 256.856 463.397 255.876 463.602C254.902 463.807 253.638 463.797 252.085 463.57L250.105 463.244C248.367 462.991 247.046 462.638 246.129 462.191V462.196Z" fill="white"/>
<path d="M264.797 470.247C263.038 469.126 261.764 467.657 260.974 465.845C260.184 464.028 259.915 461.954 260.174 459.61C260.479 456.809 261.321 454.523 262.712 452.749C264.102 450.974 265.787 449.726 267.767 449.015C269.747 448.304 271.769 448.057 273.839 448.283C275.676 448.483 277.261 448.936 278.604 449.637C279.942 450.337 280.942 451.18 281.606 452.159C282.264 453.138 282.543 454.118 282.433 455.103C282.28 456.524 281.801 457.499 281 458.03C280.2 458.557 279.263 458.762 278.183 458.647C277.677 458.594 277.24 458.499 276.872 458.362C276.503 458.231 276.119 458.062 275.724 457.857C275.281 457.646 274.887 457.483 274.539 457.362C274.191 457.241 273.754 457.156 273.228 457.098C271.711 456.935 270.468 457.256 269.499 458.067C268.531 458.878 267.957 460.111 267.772 461.764C267.62 463.165 267.925 464.286 268.694 465.139C269.463 465.993 270.474 466.482 271.738 466.619C272.448 466.698 273.08 466.672 273.628 466.545C274.176 466.419 274.597 466.256 274.902 466.056C275.202 465.856 275.36 465.687 275.376 465.55C273.702 465.366 272.448 465.034 271.622 464.55C270.79 464.065 270.432 463.339 270.532 462.375C270.637 461.411 271.053 460.695 271.774 460.226C272.496 459.758 273.654 459.61 275.234 459.784C276.861 459.963 278.115 460.29 278.994 460.769C279.868 461.248 280.458 461.901 280.763 462.738C281.069 463.57 281.148 464.645 281.006 465.95C280.863 467.283 280.331 468.468 279.415 469.505C278.504 470.542 277.325 471.322 275.887 471.838C274.449 472.354 272.938 472.528 271.358 472.354C268.741 472.069 266.556 471.369 264.797 470.247Z" fill="white"/>
<path d="M301.585 470.974C301.543 472.012 300.979 472.807 299.894 473.365C298.81 473.923 296.961 474.15 294.36 474.044C291.106 473.913 288.357 473.017 286.098 471.353C283.844 469.694 282.812 466.535 282.996 461.875C283.091 459.521 283.581 457.42 284.465 455.561C285.35 453.702 286.614 452.254 288.262 451.211C289.91 450.168 291.895 449.695 294.228 449.789C297.34 449.916 299.515 450.479 300.742 451.49C301.974 452.501 302.559 453.697 302.506 455.076C302.48 455.724 302.296 456.309 301.948 456.835C301.606 457.367 301.1 457.767 300.442 458.041C299.879 458.294 299.157 458.404 298.283 458.368L297.351 458.294C297.167 458.262 296.903 458.241 296.556 458.225C295.355 458.178 294.402 458.352 293.691 458.752C292.98 459.152 292.485 459.784 292.196 460.648C293.165 460.642 294.044 460.648 294.829 460.685C297.156 460.779 298.667 460.906 299.352 461.074C300.131 461.269 300.721 461.601 301.132 462.08C301.543 462.559 301.732 463.107 301.706 463.733C301.68 464.36 301.453 464.881 301.021 465.319C300.59 465.756 299.952 466.035 299.115 466.161C298.462 466.272 296.893 466.277 294.402 466.182C293.386 466.14 292.675 466.103 292.259 466.061C292.912 467.609 294.218 468.425 296.182 468.504C296.298 468.504 296.561 468.499 296.982 468.468C297.535 468.446 298.009 468.441 298.404 468.457C299.073 468.483 299.61 468.573 300.021 468.731C301.116 469.121 301.637 469.868 301.595 470.979L301.585 470.974Z" fill="white"/>
<path d="M326.166 455.403C325.05 456.298 323.112 457.067 320.342 457.715C320.632 458.789 320.932 460.19 321.248 461.911C321.685 464.318 321.906 466.266 321.906 467.757C321.906 469.247 321.653 470.395 321.142 471.201C320.632 472.012 319.81 472.517 318.673 472.722C317.562 472.923 316.64 472.722 315.919 472.096C315.197 471.48 314.592 470.474 314.102 469.084C313.612 467.693 313.154 465.819 312.722 463.46C312.433 461.869 312.211 460.458 312.053 459.215C310.152 459.468 308.599 459.547 307.398 459.447C306.198 459.352 305.266 459.042 304.607 458.531C303.949 458.02 303.528 457.241 303.338 456.193C303.107 454.918 303.354 453.844 304.086 452.959C304.818 452.075 306.019 451.327 307.688 450.721C309.357 450.111 311.59 449.552 314.386 449.042C317.204 448.531 319.51 448.262 321.311 448.236C323.112 448.215 324.523 448.483 325.54 449.047C326.556 449.61 327.182 450.532 327.414 451.801C327.688 453.302 327.267 454.497 326.15 455.392L326.166 455.403Z" fill="white"/>
<path d="M335.755 461.037C334.871 460.537 334.539 459.742 334.76 458.657C334.987 457.551 335.629 456.946 336.688 456.846C337.746 456.746 339.157 456.877 340.921 457.241L342.48 457.562C344.107 457.899 345.355 458.325 346.229 458.847C347.098 459.368 347.425 460.158 347.209 461.222C346.993 462.259 346.398 462.859 345.408 463.007C344.423 463.159 343.159 463.075 341.622 462.759L339.663 462.322C337.946 461.969 336.64 461.543 335.755 461.043V461.037Z" fill="white"/>
<path d="M350.927 468.188C349.421 465.987 349.073 462.822 349.89 458.699C350.627 454.966 352.112 452.206 354.35 450.421C356.583 448.641 359.352 448.073 362.659 448.726C364.697 449.126 366.414 449.784 367.809 450.695C369.205 451.606 370.2 452.707 370.79 454.002C371.38 455.297 371.527 456.714 371.222 458.252C370.98 459.473 370.5 460.511 369.779 461.353C369.058 462.201 368.104 462.891 366.914 463.433C367.725 463.733 368.362 464.334 368.836 465.224C369.305 466.119 369.442 467.072 369.242 468.094C369.026 469.184 368.536 470.147 367.767 470.995C366.999 471.843 365.872 472.438 364.381 472.78C362.891 473.123 361.038 473.075 358.815 472.633C355.061 471.869 352.433 470.384 350.927 468.183V468.188ZM358.878 468.03C359.605 468.173 360.263 468.146 360.853 467.946C361.443 467.746 361.801 467.341 361.922 466.73C362.038 466.14 361.854 465.634 361.375 465.213C360.895 464.787 360.29 464.508 359.568 464.36C359 464.25 358.484 464.239 358.02 464.339C357.678 464.413 357.399 464.576 357.183 464.824C356.967 465.076 356.83 465.371 356.762 465.713C356.693 466.05 356.714 466.382 356.814 466.693C356.914 467.009 357.114 467.262 357.404 467.462C357.799 467.73 358.289 467.92 358.878 468.036V468.03ZM360.442 460.116C361.169 460.258 361.827 460.205 362.433 459.963C363.033 459.716 363.402 459.242 363.544 458.541C363.676 457.862 363.512 457.293 363.049 456.84C362.586 456.382 361.98 456.082 361.232 455.935C360.643 455.819 360.127 455.824 359.679 455.945C359.337 456.019 359.052 456.208 358.826 456.519C358.599 456.825 358.452 457.172 358.373 457.557C358.299 457.941 358.304 458.315 358.399 458.673C358.494 459.031 358.684 459.31 358.973 459.51C359.342 459.795 359.832 459.995 360.442 460.116Z" fill="white"/>
<path d="M384.381 472.091C384.945 472.654 385.134 473.412 384.955 474.365C384.776 475.319 384.307 475.961 383.554 476.287C382.801 476.614 381.948 476.74 381 476.672C380.053 476.598 378.841 476.424 377.367 476.145C375.914 475.871 374.734 475.598 373.823 475.319C372.912 475.039 372.17 474.613 371.601 474.039C371.027 473.46 370.832 472.696 371.011 471.743C371.185 470.811 371.627 470.184 372.333 469.858C373.038 469.531 373.955 469.394 375.071 469.442C375.203 468.104 375.503 466.214 375.966 463.76C376.382 461.559 376.756 459.8 377.104 458.478C375.814 458.094 374.839 457.583 374.186 456.94C373.533 456.298 373.307 455.445 373.507 454.381C373.702 453.339 374.213 452.633 375.029 452.275C375.85 451.911 376.777 451.769 377.82 451.848C378.863 451.927 380.19 452.117 381.801 452.422C383.412 452.728 384.718 453.028 385.713 453.333C386.714 453.639 387.536 454.113 388.178 454.75C388.82 455.387 389.047 456.23 388.847 457.272C388.647 458.341 388.12 459.052 387.267 459.405C386.414 459.763 385.303 459.879 383.939 459.763C383.818 461.032 383.539 462.812 383.107 465.103C382.691 467.304 382.27 469.173 381.838 470.711C382.97 471.064 383.818 471.522 384.381 472.085V472.091Z" fill="white"/>
<path d="M410.927 466.266C409.568 466.719 407.483 466.772 404.66 466.414C404.56 467.52 404.36 468.942 404.055 470.669C403.633 473.081 403.165 474.982 402.649 476.382C402.133 477.783 401.495 478.773 400.737 479.352C399.979 479.937 399.031 480.126 397.894 479.926C396.777 479.731 395.993 479.221 395.529 478.389C395.066 477.557 394.845 476.409 394.871 474.934C394.892 473.465 395.113 471.543 395.529 469.178C395.808 467.588 396.087 466.182 396.372 464.966C394.502 464.544 393.017 464.081 391.922 463.57C390.827 463.065 390.063 462.454 389.626 461.743C389.189 461.032 389.063 460.158 389.242 459.11C389.463 457.836 390.074 456.914 391.064 456.335C392.054 455.761 393.439 455.477 395.219 455.482C396.998 455.487 399.284 455.74 402.08 456.23C404.897 456.725 407.156 457.272 408.857 457.873C410.553 458.473 411.785 459.215 412.543 460.1C413.302 460.985 413.57 462.059 413.349 463.333C413.086 464.834 412.275 465.814 410.922 466.266H410.927Z" fill="white"/>
<path d="M443.08 279.358C455.476 279.294 465.071 281.148 473.307 287.472C489.468 299.889 493.08 318.941 483.844 336.319C479.747 344.023 473.186 349.226 465.619 353.312C453.802 359.689 441.216 363.639 427.941 365.529C423.149 366.214 418.404 367.214 413.628 367.983C412.469 368.167 410.8 368.762 410.289 367.362C409.847 366.156 411.569 365.771 412.396 365.187C416.366 362.412 419.526 359.084 420.611 354.176C421.411 350.553 420.848 349.779 417.198 349.321C409.22 348.315 403.007 344.197 397.914 338.204C395.224 335.034 392.991 331.538 391.111 327.825C389.831 325.308 389.236 322.654 389.268 319.826C389.373 310.205 393.544 302.717 400.721 296.424C413.544 285.182 428.225 279.157 443.086 279.352L443.08 279.358ZM421.206 362.938C422.201 363.691 423.212 363.396 424.218 363.16C429.131 362.006 434.018 360.758 438.91 359.537C446.114 357.736 453.144 355.477 459.81 352.222C466.187 349.11 472.122 345.308 476.64 339.705C481.516 333.665 483.939 326.688 484.66 318.963C485.982 304.86 477.493 291.295 464.134 286.609C452.47 282.512 440.674 282.501 428.804 285.566C419.663 287.93 411.69 292.517 404.629 298.694C399.963 302.775 395.613 307.204 393.991 313.433C391.558 322.796 394.887 330.516 401.295 337.214C406.451 342.607 412.822 345.656 420.147 346.856C423.212 347.356 424.302 348.525 424.771 351.569C424.971 352.875 424.908 354.176 424.686 355.487C424.213 358.289 422.675 360.59 421.211 362.938H421.206Z" fill="white" stroke="white" stroke-width="5"/>
<path d="M412.648 311.311C412.096 310.732 411.816 310.026 411.816 309.194C411.816 308.362 412.096 307.683 412.648 307.104C413.201 306.524 413.881 306.235 414.681 306.235C415.481 306.235 416.134 306.524 416.698 307.104C417.261 307.683 417.54 308.383 417.54 309.194C417.54 310.005 417.261 310.732 416.698 311.311C416.134 311.89 415.46 312.18 414.681 312.18C413.902 312.18 413.207 311.89 412.648 311.311ZM413.201 323.475C412.88 323.091 412.67 322.512 412.564 321.738C412.459 320.964 412.406 319.858 412.406 318.42C412.406 317.214 412.469 316.256 412.591 315.556C412.712 314.855 412.938 314.334 413.265 313.992C413.591 313.649 414.065 313.475 414.686 313.475C415.355 313.475 415.85 313.665 416.166 314.049C416.482 314.434 416.698 315.013 416.803 315.787C416.909 316.561 416.961 317.667 416.961 319.105C416.961 320.311 416.898 321.269 416.777 321.969C416.656 322.67 416.429 323.191 416.103 323.533C415.776 323.876 415.302 324.049 414.686 324.049C414.018 324.049 413.523 323.86 413.207 323.475H413.201Z" fill="white"/>
<path d="M427.388 325.713C426.53 323.897 426.103 322.048 426.103 320.174C426.103 318.789 426.229 317.414 426.482 316.061C426.735 314.708 427.146 313.57 427.72 312.659C428.294 311.743 429.031 311.29 429.947 311.29C430.516 311.29 431.006 311.469 431.416 311.827C431.827 312.185 432.027 312.707 432.027 313.391C432.027 313.733 431.996 314.076 431.927 314.418C431.864 314.76 431.764 315.187 431.632 315.692C431.601 315.792 431.537 316.035 431.448 316.424C431.358 316.814 431.295 317.183 431.264 317.525C431.98 317.135 432.796 316.94 433.712 316.94C434.629 316.94 435.476 317.146 436.272 317.551C437.061 317.962 437.704 318.583 438.204 319.421C438.704 320.263 438.952 321.285 438.952 322.491C438.952 323.518 438.715 324.487 438.241 325.392C437.767 326.298 437.088 327.03 436.198 327.593C435.308 328.157 434.286 328.436 433.128 328.436C430.158 328.436 428.246 327.525 427.388 325.708V325.713ZM434.144 324.076C434.476 323.744 434.644 323.344 434.644 322.891C434.644 322.438 434.476 322.033 434.144 321.69C433.807 321.348 433.423 321.174 432.98 321.174C432.538 321.174 432.159 321.348 431.832 321.69C431.506 322.033 431.343 322.433 431.343 322.891C431.343 323.349 431.506 323.744 431.832 324.076C432.159 324.413 432.543 324.576 432.98 324.576C433.417 324.576 433.807 324.408 434.144 324.076Z" fill="white"/>
<path d="M440.026 313.507C439.473 312.928 439.194 312.222 439.194 311.39C439.194 310.558 439.473 309.879 440.026 309.3C440.579 308.72 441.258 308.431 442.058 308.431C442.859 308.431 443.512 308.72 444.075 309.3C444.639 309.879 444.918 310.579 444.918 311.39C444.918 312.201 444.639 312.928 444.075 313.507C443.512 314.086 442.838 314.376 442.058 314.376C441.279 314.376 440.584 314.086 440.026 313.507ZM440.579 325.671C440.258 325.287 440.047 324.708 439.942 323.934C439.836 323.16 439.784 322.054 439.784 320.616C439.784 319.41 439.847 318.452 439.968 317.751C440.089 317.051 440.315 316.53 440.642 316.187C440.968 315.845 441.442 315.671 442.064 315.671C442.733 315.671 443.228 315.861 443.543 316.245C443.859 316.63 444.075 317.209 444.181 317.983C444.286 318.757 444.339 319.863 444.339 321.301C444.339 322.507 444.275 323.465 444.154 324.165C444.033 324.866 443.807 325.387 443.48 325.729C443.154 326.072 442.68 326.245 442.064 326.245C441.395 326.245 440.9 326.056 440.584 325.671H440.579Z" fill="white"/>
<path d="M456.887 320.3C456.087 320.6 454.997 320.763 453.607 320.779C453.591 321.185 453.58 321.848 453.58 322.759C453.58 323.67 453.644 324.35 453.775 324.739C453.859 325.018 453.986 325.197 454.154 325.276C454.323 325.355 454.581 325.413 454.923 325.45C455.039 325.466 455.165 325.487 455.302 325.513C455.439 325.54 455.603 325.566 455.782 325.598C456.155 325.682 456.45 325.882 456.661 326.198C456.872 326.519 456.982 326.919 456.982 327.409C456.982 327.962 456.698 328.394 456.124 328.705C455.555 329.015 454.77 329.168 453.775 329.168C452.859 329.168 451.99 328.905 451.158 328.373C450.326 327.841 449.757 327.13 449.447 326.23C449.12 325.266 448.957 323.449 448.957 320.774C447.814 320.742 446.898 320.59 446.203 320.321C445.508 320.053 445.16 319.568 445.16 318.868C445.16 317.988 445.487 317.393 446.14 317.093C446.793 316.793 447.73 316.63 448.957 316.614C449.004 315.308 449.21 314.218 449.568 313.349C449.926 312.475 450.574 312.038 451.5 312.038C452.427 312.038 453.059 312.443 453.349 313.26C453.633 314.076 453.759 315.192 453.728 316.614C455.213 316.598 456.308 316.714 457.019 316.956C457.73 317.204 458.083 317.741 458.083 318.573C458.083 319.405 457.683 319.995 456.882 320.295L456.887 320.3Z" fill="white"/>
<path d="M462.243 325.534C461.311 325.061 460.59 324.397 460.079 323.539C459.563 322.68 459.305 321.717 459.305 320.637C459.305 319.558 459.563 318.599 460.079 317.699C460.595 316.804 461.306 316.082 462.222 315.545C463.133 315.008 464.17 314.739 465.329 314.739C466.372 314.739 467.293 314.95 468.094 315.377C468.894 315.803 469.505 316.361 469.926 317.051C470.353 317.746 470.563 318.468 470.563 319.215C470.563 320.437 470.1 321.332 469.184 321.896C468.262 322.459 467.167 322.738 465.892 322.738C465.045 322.738 464.328 322.633 463.739 322.417C464.228 323.217 465.034 323.618 466.161 323.618C466.619 323.618 467.109 323.56 467.63 323.444C467.825 323.396 468.015 323.37 468.194 323.37C468.552 323.37 468.841 323.46 469.062 323.639C469.284 323.818 469.394 324.065 469.394 324.371C469.394 324.876 469.084 325.313 468.462 325.682C467.841 326.051 466.84 326.235 465.45 326.235C464.244 326.235 463.175 325.998 462.243 325.524V325.534ZM464.407 319.942C464.66 320.047 464.945 320.1 465.25 320.1C465.608 320.1 465.924 320.016 466.193 319.853C466.461 319.689 466.598 319.479 466.598 319.215C466.598 318.92 466.477 318.668 466.245 318.457C466.008 318.246 465.671 318.141 465.229 318.141C464.787 318.141 464.439 318.278 464.186 318.547C463.933 318.815 463.807 319.115 463.807 319.442C463.955 319.668 464.155 319.837 464.407 319.942Z" fill="white"/>
<path d="M473.233 326.124C472.548 326.124 471.953 325.871 471.448 325.366C470.942 324.86 470.689 324.265 470.689 323.581C470.689 322.896 470.942 322.301 471.448 321.796C471.953 321.29 472.548 321.037 473.233 321.037C473.917 321.037 474.513 321.29 475.018 321.796C475.524 322.301 475.776 322.896 475.776 323.581C475.776 324.265 475.524 324.86 475.018 325.366C474.513 325.871 473.917 326.124 473.233 326.124Z" fill="white"/>
<path d="M213.028 240.979C208.662 233.834 205.061 226.282 200.437 219.242C193.107 208.083 182.206 202.449 179.031 200.242C173.665 196.514 173.523 199.057 173.523 201.632C173.523 202.749 173.065 203.734 171.801 203.791C170.49 203.849 170.158 202.717 169.9 201.738C168.831 197.625 170.6 194.597 174.734 195.34C178.162 195.956 184.545 199.189 187.346 201.259C197.256 208.568 202.67 214.418 208.057 223.223C215.145 234.808 229.495 257.883 237.02 269.189C240.3 274.123 241.796 279.631 236.777 285.492C234.387 288.283 234.413 292.154 233.581 295.608C233.565 295.677 233.581 295.761 233.555 295.824C231.18 301.022 234.102 305.835 234.529 310.837C235.05 316.94 234.76 323.096 232.149 328.852C231.575 330.111 230.553 330.769 229.131 330.326C227.014 329.673 225.793 330.416 224.576 332.301C221.885 336.461 219.026 340.548 215.919 344.408C209.911 351.869 209.284 360.511 209.868 369.51C209.937 370.527 210.563 370.895 211.401 371.079C213.328 371.495 215.261 371.869 217.188 372.285C217.931 372.443 218.42 372.206 218.842 371.574C219.526 370.553 220.537 370.226 221.717 370.553C223.007 370.906 223.565 371.901 223.813 373.112C224.26 375.324 224.692 377.546 225.119 379.763C228.452 388.468 242.512 385.803 247.156 379.215C247.946 378.252 248.905 377.557 250.169 377.815C251.49 378.088 252.438 379.026 252.565 380.369C252.965 384.755 255.898 387.699 258.694 390.474C264.271 396.008 274.35 396.661 279.695 389.594C280.664 388.499 280.969 387.156 281.532 385.903C282.686 383.344 283.886 382.817 286.582 383.712C295.313 386.603 304.287 388.562 313.223 390.653C315.271 391.132 317.414 391.216 319.5 391.543C325.687 392.507 331.664 394.566 337.941 395.045C339.321 395.15 340.695 395.345 342.075 395.503C343.786 395.698 344.729 394.455 345.74 393.444C349.242 389.921 351.78 385.861 353.212 381.022C354.655 376.145 356.688 371.48 357.256 366.309C357.593 363.244 357.667 360.211 357.715 357.167C358.204 350.658 356.188 344.75 354.113 338.668C351.596 331.28 347.499 324.497 345.961 316.772C345.84 316.166 345.55 315.692 344.934 315.461C342.533 314.56 342.238 312.628 342.533 310.442C342.612 309.868 342.807 309.421 342.243 308.884C340.053 306.793 339.742 304.071 341.432 301.538C342.043 300.627 342.359 299.995 341.775 298.836C341.027 297.346 342.191 295.882 342.554 294.429C342.828 293.344 342.959 292.786 341.596 292.385C338.647 291.522 338.067 288.868 340.258 286.682C341.827 285.118 343.718 284.023 345.74 283.133C349.373 281.532 352.833 279.5 355.429 276.545C359.036 272.438 362.802 268.42 366.093 264.092C368.926 260.363 370.706 255.845 373.012 251.711C378.415 242.027 381.485 231.39 385.097 221.022C387.988 212.717 391.074 204.439 393.275 195.877C394.344 191.732 396.008 187.73 397.53 183.712C399.695 178.004 400.242 172.143 398.547 166.319C397.304 162.054 396.103 160.632 391.517 160.463C382.928 160.147 375.119 162.817 367.883 167.241C357.862 173.375 349.2 181.222 340.669 189.205C329.337 199.805 319.363 211.632 310.047 223.997C301.232 235.692 294.655 248.731 288.036 261.743C285.276 267.172 280.785 270.769 274.371 271.406C270.095 271.827 265.824 272.375 261.727 273.749C260.279 274.234 258.873 274.855 257.472 275.466C256.209 276.019 255.076 275.866 254.487 274.608C253.928 273.423 254.365 272.322 255.498 271.58C255.619 271.501 255.75 271.438 255.877 271.364C257.156 270.606 258.599 270.247 259.647 269.163C262.496 266.214 258.726 257.214 255.708 252.217C250.979 244.376 238.784 230.532 232.359 224.007C220.927 212.391 194.86 191.954 180.111 185.018C176.261 183.207 168.131 180.379 163.918 179.774C158.973 179.063 156.525 182.591 156.277 187.651C156.093 191.459 156.63 195.129 157.909 198.615C160.537 205.771 161.901 213.244 163.765 220.584C167.299 234.508 173.623 247.209 180.479 259.689C181.464 261.48 182.665 263.165 184.15 264.576C189.215 269.415 193.713 274.839 199.142 279.3C204.739 283.897 211.285 286.43 218.336 287.83C220.642 288.289 222.97 288.352 225.282 288.668C226.245 288.799 227.199 289.026 227.399 290.211C227.593 291.348 226.851 291.969 226.008 292.47C225.192 292.954 224.318 293.265 223.333 293.333C213.07 294.018 204.092 290.721 196.066 284.534C191.88 281.306 188.815 276.893 184.887 273.47C177.172 266.756 172.854 258.015 168.868 248.973C166.345 243.244 163.154 237.83 161.522 231.685C159.337 223.439 156.941 215.255 155.255 206.877C154.539 203.312 153.297 199.868 152.338 196.356C151.243 192.343 151.611 188.341 151.848 184.386C152.154 179.321 157.588 175.608 162.596 175.124C168.225 174.576 172.675 176.946 177.594 178.805C185.292 181.711 191.933 186.382 198.715 190.685C207.004 195.94 214.766 202.112 222.307 208.42L234.903 219.321C242.796 226.572 250.337 234.097 256.846 242.712C260.674 247.783 263.702 253.112 266.161 258.873C267.146 261.174 267.546 263.633 268.073 266.051C268.373 267.425 269.084 267.888 270.384 267.662C272.68 267.267 274.982 266.883 277.278 266.467C279.668 266.035 281.485 264.355 282.106 262.385C283.755 257.151 287.267 252.98 289.6 248.152C293.023 241.064 296.851 234.149 301.348 227.662C304.545 223.049 307.757 218.436 311.427 214.165C315.898 208.963 320.09 203.512 324.745 198.483C330.29 192.496 335.893 186.54 342.201 181.301C345.903 178.225 349.21 174.687 353.065 171.78C361.053 165.756 369.063 159.752 378.942 157.046C383.539 155.787 388.215 155.082 392.981 155.329C399.479 155.666 402.78 160.163 404.492 166.161C406.598 173.533 405.445 180.6 402.838 187.578C400.664 193.386 399.394 199.463 397.509 205.361C394.113 215.977 390.753 226.609 387.283 237.204C384.523 245.619 380.395 253.407 376.367 261.264C373.591 266.677 369.842 271.211 365.866 275.671C364.313 277.409 362.97 279.336 361.464 281.116C358.578 284.523 354.739 286.677 350.974 288.905C350.09 289.426 349.315 289.816 349.663 291.032C349.737 291.295 349.753 291.675 349.616 291.89C347.746 294.892 348.373 298.462 347.346 301.643C347.141 302.28 346.967 302.575 347.883 302.849C350.348 303.581 350.89 304.934 349.705 307.288C348.973 308.741 347.92 310.079 350.169 311.137C350.379 311.237 350.548 311.611 350.585 311.875C351.469 318.215 354.971 323.486 357.372 329.226C360.906 337.693 364.376 346.203 364.529 355.85C364.718 367.693 362.033 378.673 357.541 389.4C356.572 391.711 354.982 393.644 353.486 395.624C352.67 396.703 352.507 397.304 354.186 397.578C363.539 399.121 372.886 400.663 382.212 402.349C390.032 403.76 397.82 405.361 405.619 406.888C408.115 407.378 410.758 407.441 412.975 408.831C414.702 409.916 416.53 410.711 418.362 411.564C421.98 413.244 423.307 416.166 422.312 420.047C421.917 421.59 421.327 423.112 420.632 424.55C419.442 427.019 418.72 429.579 418.494 432.306C418.378 433.681 418.162 435.05 417.709 436.377C416.093 441.122 413.755 442.738 407.825 442.87C402.981 442.975 398.31 441.569 393.618 440.574C382.064 438.125 370.521 435.613 359.021 432.949C347.235 430.221 335.355 427.909 323.691 424.676C322.364 424.307 321.453 424.402 320.753 425.656C320.437 426.224 319.842 426.656 319.595 427.241C316.998 433.407 311.401 433.881 306.019 433.881C298.436 433.881 290.879 432.886 283.36 431.901C240.458 425.245 196.646 423.533 155.324 409.142C141.733 404.903 130.016 397.62 120.058 387.546C114.023 381.443 109.068 374.434 105.219 366.782C102.807 361.996 100.664 356.998 99.7525 351.606C98.9784 347.014 101.538 344.192 106.198 343.755C111.817 343.223 116.772 345.555 121.954 346.788L199.052 367.788C203.849 369.589 204.176 369.421 203.776 364.439C202.97 354.35 206.33 345.856 212.707 338.231C215.366 335.05 217.504 331.438 220.021 328.125C221.759 325.835 221.833 323.586 220.795 320.995C218.357 314.918 220.484 307.578 225.761 303.639C226.604 303.007 226.946 302.301 227.162 301.322C228.262 296.34 229.163 291.306 230.753 286.445C231.58 283.918 232.802 281.553 234.597 279.621C236.388 277.693 236.293 275.856 234.913 273.923C229.163 265.887 218.189 249.437 213.038 241.006L213.028 240.979ZM318.526 398.21C318.262 396.962 317.904 396.445 316.661 396.366C306.851 395.75 297.52 392.622 287.936 390.811C286.635 390.563 286.035 390.774 285.308 391.875C282.37 396.319 278.394 399.705 273.012 400.163C267.241 400.658 260.321 399.895 255.724 396.219C252.902 393.96 250.974 390.885 248.931 387.946C248.478 387.293 248.062 386.44 247.088 387.272C238.073 393.744 222.817 392.907 219.368 380.837C218.947 379.552 218.294 378.894 217.009 378.626C214.439 378.094 211.885 377.509 209.337 376.893L111.706 349.931C110.669 349.626 108.773 349.194 107.52 348.847C104.708 348.073 105.471 349.826 106.356 352.538C106.424 352.749 106.503 352.949 106.572 353.16C109.468 361.817 113.828 369.621 119.473 376.84C127.509 387.125 137.63 394.523 149.505 399.568C157.836 403.107 166.598 405.582 175.445 407.251C210.737 416.324 247.225 418.225 283.139 424.097C290.642 425.171 298.157 426.314 305.74 426.619C308.678 426.74 311.743 426.63 313.512 423.375M323.165 416.193C323.165 418.506 324.295 419.891 326.556 420.347C337.199 422.501 347.794 424.95 358.499 426.74C370.374 428.726 382.043 431.632 393.865 433.844C398.231 434.66 402.528 435.866 406.946 436.403C409.421 436.703 410.911 435.861 411.185 433.965C411.912 428.889 412.938 423.918 415.161 419.247C415.471 418.594 415.608 417.888 414.892 417.262C412.549 415.229 410.653 412.333 406.83 413.317C406.64 413.365 406.403 413.228 406.187 413.202C394.255 411.685 382.464 409.331 370.648 407.156C357.667 404.771 344.803 401.848 331.996 398.662C329.821 398.12 327.694 397.335 325.377 397.356C324.129 397.367 323.744 397.699 324.176 398.868C325.024 401.148 324.818 403.46 324.408 405.782C323.791 409.231 323.16 412.675 323.165 416.193ZM230.316 311.896C231.422 311.574 232.391 310.958 232.396 309.584C232.407 308.136 231.606 307.262 230.116 307.246C228.699 307.235 227.952 308.146 227.899 309.431C227.841 310.89 228.81 311.622 230.316 311.89V311.896Z" fill="white"/>
<path d="M332.612 260.079C332.612 259.5 332.707 258.899 332.596 258.336C330.937 249.742 332.549 241.253 334.097 232.923C335.777 223.881 337.62 214.792 342.496 206.619C344.834 202.696 346.572 198.404 349.394 194.739C356.893 184.997 365.719 176.693 376.193 170.226C378.857 168.583 382.038 168.304 385.071 168.278C387.82 168.252 389.426 170.511 390.737 172.622C392.169 174.939 392.48 177.567 391.78 180.221C391.348 181.875 390.232 182.944 388.446 182.759C386.651 182.575 385.819 181.359 385.813 179.579C385.813 178.204 386.114 176.814 385.445 175.487C384.924 174.455 384.271 173.97 383.012 174.197C380.837 174.587 378.799 175.134 376.967 176.498C370.763 181.106 364.687 185.777 359.421 191.559C352.98 198.636 348.004 206.572 344.692 215.403C342.017 222.543 340.268 230.047 339.257 237.651C338.71 241.769 338.373 245.914 338.02 250.058C337.625 254.739 338.62 259.358 338.725 264.023C338.841 269.426 339.6 274.771 340.4 280.111C340.463 280.542 340.521 280.979 340.542 281.416C340.621 282.954 340.221 284.271 338.478 284.481C336.809 284.681 335.903 283.591 335.555 282.112C334.808 278.92 333.944 275.735 333.502 272.496C332.944 268.389 332.522 264.244 332.606 260.079H332.612Z" fill="white"/>
<path d="M302.133 322.412C302.401 317.035 303.012 311.559 305.029 306.314C306.272 303.081 309.468 301.922 313.444 303.475C318.146 305.313 320.753 309.194 322.538 313.57C323.755 316.551 324.739 319.663 323.544 323.112C321.406 329.305 314.139 335.498 306.877 335.692C304.803 335.75 303.57 334.239 303.065 332.338C302.212 329.147 302.18 325.856 302.133 322.406V322.412ZM316.298 311.869C316.34 310.116 314.787 308.615 312.933 308.615C311.274 308.615 309.916 309.974 309.9 311.653C309.884 313.433 311.274 314.929 312.97 314.945C314.687 314.96 316.261 313.507 316.298 311.869Z" fill="white"/>
<path d="M259.115 352.385C257.462 352.512 256.308 352.88 255.571 354.207C254.997 355.234 253.933 355.45 252.891 355.05C251.885 354.666 251.595 353.76 251.653 352.717C251.743 351 252.038 349.279 251.653 347.272C250.611 348.273 249.984 349.163 250.095 350.427C250.205 351.69 249.858 352.775 248.715 353.412C247.456 354.113 246.324 353.554 245.25 352.854C244.66 352.47 244.197 351.822 243.365 351.88C243.007 352.501 243.596 352.812 243.818 353.212C244.323 354.139 244.439 355.034 243.596 355.793C242.68 356.614 241.606 356.546 240.869 355.677C239.041 353.518 237.177 351.359 235.661 348.984C234.618 347.346 236.166 345.619 238.373 345.761C240.284 345.882 242.054 346.609 243.828 347.262C245.229 347.778 246.187 347.657 247.046 346.182C248.104 344.365 249.463 342.722 250.774 341.064C252.233 339.221 253.991 339.41 255.087 341.453C256.008 343.165 256.408 345.003 256.266 346.93C256.166 348.273 256.661 348.652 257.909 348.194C259.431 347.636 260.995 347.33 262.628 347.483C265.545 347.751 266.867 350.411 265.245 352.838C264.56 353.865 263.765 354.829 262.954 355.756C262.148 356.677 261.174 357.362 259.889 356.661C258.552 355.935 258.499 354.739 258.857 353.439C258.931 353.175 258.994 352.901 259.12 352.406L259.115 352.385Z" fill="white"/>
<path d="M251.564 372.559C250.374 372.396 248.989 372.354 247.872 371.659C242.306 368.183 236.677 364.76 232.796 359.236C232.291 358.515 231.817 357.788 231.832 356.851C231.848 355.803 232.259 354.992 233.259 354.608C234.176 354.255 235.134 354.481 235.624 355.261C239.078 360.727 244.855 363.407 249.71 367.198C250.653 367.936 251.453 367.962 252.506 367.651C255.15 366.883 257.388 365.361 259.642 363.897C262.096 362.296 264.65 360.916 267.362 359.816C268.283 359.442 269.194 359.131 269.963 360.016C270.758 360.927 270.453 361.911 269.989 362.875C269.658 363.565 269.063 364.002 268.441 364.376C264.808 366.54 261.174 368.699 257.525 370.837C255.729 371.89 253.723 372.285 251.58 372.564L251.564 372.559Z" fill="white"/>
<path d="M307.32 290.89C305.698 290.632 305.356 289.637 305.751 288.32C306.119 287.104 306.988 286.161 307.894 285.319C311.791 281.69 315.73 278.11 319.658 274.518C320.574 273.681 321.643 272.97 322.702 274.107C323.639 275.118 322.997 276.151 322.217 277.009C317.941 281.706 313.165 285.898 308.647 290.353C308.252 290.742 307.757 290.811 307.32 290.89Z" fill="white"/>
<path d="M312.101 296.409C310.764 296.361 309.874 296.087 309.558 295.003C309.257 293.965 309.6 293.023 310.563 292.596C314.434 290.879 318.52 289.8 322.612 288.773C323.36 288.583 324.081 289.01 324.323 289.805C324.55 290.542 324.429 291.311 323.702 291.738C319.979 293.934 316.05 295.608 312.096 296.414L312.101 296.409Z" fill="white"/>
<path d="M294.919 360.695C294.845 361.896 294.134 362.549 292.986 362.538C291.77 362.533 291.148 361.727 291.211 360.563C291.264 359.494 291.938 358.831 293.039 358.831C294.213 358.831 294.95 359.394 294.924 360.695H294.919Z" fill="white"/>
<path d="M304.992 361.722C304.682 362.801 304.034 363.528 302.844 363.423C301.843 363.333 301.275 362.654 301.359 361.638C301.448 360.548 302.143 359.889 303.212 359.879C304.329 359.874 304.876 360.606 304.992 361.722Z" fill="white"/>
<path d="M294.75 368.441C295.756 368.473 296.461 369.036 296.53 369.974C296.603 370.927 295.935 371.643 294.966 371.685C293.918 371.732 293.117 371.064 293.081 370.021C293.044 369.063 293.718 368.468 294.75 368.436V368.441Z" fill="white"/>
<path d="M95.9665 298.652C96.2719 293.349 98.0886 288.12 101.369 283.412C103.128 280.885 105.277 278.752 108.01 277.262C109.842 276.266 111.801 275.708 113.881 275.661C115.951 275.613 117.92 276.087 119.8 276.956C122.201 278.067 124.271 279.652 126.203 281.432C128.731 283.76 130.953 286.372 133.149 289.01C135.651 292.017 138.057 295.103 140.785 297.915C142.928 300.126 145.429 301.833 148.141 303.249C150.916 304.697 153.823 305.84 156.762 306.904C160.637 308.31 164.56 309.579 168.336 311.253C175.308 314.35 181.29 318.778 186.261 324.566C187.457 325.956 188.505 327.451 189.031 329.236C189.658 331.359 189.295 333.275 187.662 334.845C186.662 335.808 185.392 336.277 184.044 336.53C181.875 336.94 179.7 336.851 177.525 336.546C175.635 336.277 173.739 336.04 171.848 335.782C169.958 335.524 168.068 335.245 166.177 334.987C164.287 334.729 162.391 334.481 160.5 334.223C158.773 333.986 157.051 333.734 155.329 333.497C153.771 333.281 152.212 333.086 150.653 332.87C149.094 332.659 147.541 332.433 145.982 332.217C144.624 332.027 143.265 331.848 141.912 331.659C140.611 331.474 139.31 331.301 138.01 331.095C136.435 330.848 134.866 330.584 133.297 330.3C126.741 329.105 120.327 327.441 114.339 324.423C110.311 322.396 106.693 319.805 103.586 316.524C100.195 312.944 97.7095 308.847 96.5089 304.018C96.1034 302.396 95.9243 300.748 95.9665 298.641V298.652ZM120.506 312.707C120.637 312.749 120.674 312.754 120.695 312.77C122.164 313.702 123.771 313.939 125.461 313.676C129.189 313.091 131.785 309.252 130.959 305.55C129.932 300.969 124.845 298.762 120.764 301.132C120.632 301.211 120.574 301.216 120.469 301.085C119.258 299.579 117.151 299.805 116.267 301.527C115.756 302.528 115.529 303.602 115.429 304.708C115.24 306.767 115.266 308.831 115.308 310.89C115.335 312.038 115.345 313.191 115.561 314.323C115.724 315.203 115.951 316.061 116.43 316.825C116.92 317.604 117.667 317.867 118.557 317.783C119.421 317.704 119.942 317.204 120.237 316.419C120.421 315.919 120.495 315.392 120.506 314.86C120.521 314.155 120.506 313.449 120.506 312.701V312.707ZM168.336 322.048L168.294 322.033C168.294 321.754 168.278 321.469 168.294 321.19C168.373 320.068 168.447 318.936 168.336 317.82C168.236 316.835 167.731 316.051 166.714 315.792C165.219 315.408 164.018 315.792 163.365 317.372C163.307 317.52 163.244 317.667 163.207 317.815C162.575 320.111 162.638 322.406 163.339 324.671C163.802 326.166 164.818 327.167 166.288 327.709C166.914 327.941 167.562 328.088 168.226 328.152C168.778 328.204 169.337 328.246 169.942 328.294C169.679 328.594 169.384 328.731 169.058 328.826C168.394 329.01 167.72 329.005 167.046 328.973C166.372 328.942 165.719 329.036 165.108 329.342C164.439 329.673 163.976 330.168 163.971 330.958C163.965 331.754 164.308 332.364 165.013 332.765C165.308 332.933 165.614 333.081 165.94 333.16C167.573 333.56 169.189 333.412 170.769 332.917C173.255 332.138 174.887 330.39 175.935 328.083C177.046 325.64 177.367 323.033 177.309 320.369C177.283 319.242 177.114 318.152 176.614 317.125C176.177 316.235 175.487 315.724 174.476 315.661C172.912 315.561 171.875 316.435 171.722 317.988C171.664 318.552 171.743 319.115 171.733 319.679C171.717 320.532 171.817 321.39 171.612 322.238C171.364 323.27 170.764 323.665 169.705 323.512C169.115 323.428 168.742 323.117 168.568 322.554C168.499 322.322 168.447 322.091 168.384 321.827C168.368 321.922 168.352 321.991 168.341 322.059L168.336 322.048ZM153.449 324.518C154.671 324.508 156.061 324.234 157.325 323.481C158.068 323.038 158.673 322.454 158.979 321.627C159.479 320.284 158.721 318.984 157.315 318.731C156.356 318.557 155.508 318.731 154.797 319.442C154.108 320.126 153.118 320.011 152.57 319.721C151.901 319.363 151.554 318.662 151.654 317.804C151.743 317.041 152.175 316.519 152.902 316.272C153.676 316.008 154.329 316.198 154.866 316.919C155.45 317.709 156.172 318.062 157.162 317.946C158.131 317.836 158.857 317.325 159.063 316.488C159.179 316.019 159.163 315.55 159.052 315.082C158.752 313.791 157.978 312.844 156.883 312.138C155.261 311.09 153.476 310.827 151.601 311.169C147.678 311.88 145.361 315.271 146.203 319.157C146.893 322.328 149.9 324.592 153.449 324.523V324.518ZM108.821 302.712C109.474 302.722 110.358 302.638 111.227 302.433C112.217 302.201 113.123 301.811 113.902 301.137C115.319 299.916 115.424 297.272 113.602 296.135C112.996 295.756 112.375 295.424 111.706 295.176C111.475 295.092 111.238 295.018 111.011 294.913C110.69 294.766 110.558 294.497 110.648 294.239C110.737 293.976 111.011 293.834 111.332 293.87C111.606 293.902 111.848 294.028 112.08 294.16C112.559 294.439 113.075 294.487 113.618 294.444C114.534 294.365 115.203 293.765 115.287 292.954C115.356 292.259 115.171 291.638 114.713 291.106C114.229 290.532 113.623 290.126 112.933 289.853C110.743 288.978 108.52 288.936 106.298 289.721C105.219 290.105 104.281 290.727 103.623 291.701C102.738 293.012 102.865 294.55 103.955 295.692C104.503 296.266 105.166 296.656 105.893 296.962C106.419 297.188 106.941 297.42 107.462 297.662C107.646 297.746 107.815 297.862 107.904 298.062C108.099 298.468 107.936 298.757 107.494 298.794C107.204 298.82 106.967 298.731 106.751 298.536C106.219 298.046 105.598 297.83 104.861 297.888C103.723 297.978 102.949 298.784 103.033 299.853C103.075 300.379 103.286 300.832 103.649 301.211C104.071 301.648 104.587 301.943 105.15 302.164C106.251 302.596 107.399 302.707 108.81 302.712H108.821ZM135.666 317.43C135.635 318.099 135.693 318.831 135.745 319.558C135.798 320.353 135.882 321.148 136.193 321.901C136.514 322.675 137.057 323.138 137.91 323.233C138.241 323.27 138.557 323.265 138.884 323.212C139.484 323.117 139.958 322.828 140.285 322.306C140.579 321.838 140.727 321.322 140.811 320.785C141.101 318.947 141.038 317.098 140.98 315.25C140.953 314.487 140.901 313.718 140.737 312.97C140.453 311.627 139.874 310.974 138.721 310.848C137.341 310.69 136.519 311.211 136.098 312.396C135.988 312.701 135.914 313.023 135.861 313.344C135.651 314.676 135.651 316.014 135.666 317.425V317.43ZM138.341 302.754C137.578 301.796 136.588 301.538 135.435 301.754C134.029 302.017 133.176 303.165 133.365 304.56C133.465 305.303 133.865 305.903 134.355 306.445C135.382 307.588 136.677 308.352 138.031 309.042C138.273 309.163 138.505 309.115 138.736 308.999C139.742 308.489 140.711 307.915 141.575 307.183C142.075 306.761 142.517 306.282 142.87 305.724C143.918 304.086 143.207 302.217 141.348 301.78C140.174 301.501 139.131 301.748 138.336 302.749L138.341 302.754Z" fill="white"/>
<path d="M99.8053 281.769C96.493 287.009 94.592 292.628 94.1234 298.762C93.4019 298.525 92.7805 298.173 92.2487 297.693C90.3477 295.982 89.4788 293.834 89.5578 291.285C89.5789 290.627 89.6842 289.984 89.8632 289.358C89.9159 289.168 89.8632 289.105 89.7105 289.031C87.5146 287.973 85.2134 287.262 82.8121 286.877C80.8111 286.556 78.7995 286.451 76.7827 286.609C74.8922 286.756 73.0438 287.109 71.2218 287.651C69.3788 288.204 67.5357 287.288 66.9406 285.571C66.1876 283.391 67.6726 281.064 69.9633 280.848C72.1908 280.637 74.4235 280.695 76.651 280.911C81.5483 281.385 86.1771 282.744 90.5425 285.008C90.8322 285.161 91.1376 285.292 91.4009 285.482C91.6694 285.677 91.8011 285.587 91.9907 285.361C93.1386 283.976 94.4551 282.828 96.235 282.317C97.3777 281.985 98.552 281.896 99.8158 281.769H99.8053Z" fill="white"/>
<path d="M122.333 307.141C122.333 306.13 123.16 305.282 124.16 305.282C125.161 305.282 126.009 306.124 126.009 307.125C126.009 308.131 125.171 308.984 124.181 308.994C123.191 308.999 122.333 308.141 122.333 307.146V307.141Z" fill="white"/>
<path d="M60.9532 114.571C58.8468 112.501 57.0775 108.926 55.661 103.839C54.6236 100.105 53.8337 97.4355 53.2913 95.8294C52.7542 94.2285 52.0485 92.9436 51.1744 91.9905C50.3002 91.0374 49.1681 90.753 47.7884 91.1479C46.1454 91.6166 45.0764 92.4592 44.5867 93.6756C44.097 94.892 44.0127 96.2875 44.3339 97.8725C44.6552 99.4523 45.266 101.79 46.1665 104.876C47.2723 108.678 47.9727 111.717 48.2729 113.992C48.573 116.266 48.2149 118.304 47.2039 120.105C46.1928 121.912 44.1549 123.228 41.2112 124.165C27.7884 128.431 20.0633 104.655 17.3197 96.1559C15.503 90.5213 13.8284 84.4128 13.9759 78.4518C14.0864 73.981 16.098 70.516 19.8842 68.2148C21.2797 67.3512 22.6015 66.7298 23.8547 66.3454C25.7294 65.7714 27.5356 65.6187 29.2681 65.8768C31.0006 66.1348 32.3645 66.8088 33.3597 67.8936C34.4235 66.8931 35.5346 66.0558 36.6931 65.3765C37.8516 64.6972 39.5946 64.0284 41.9274 63.3702C44.7921 62.5645 47.6778 62.4328 50.5635 62.9752C53.4493 63.5176 55.7189 64.7762 57.3776 66.7246C59.0627 63.723 60.9585 61.3375 63.0438 59.5734C65.1291 57.8094 68.1728 56.5139 71.859 55.5345C76.5088 54.3022 83.1175 54.6709 87.5514 56.5139C92.0169 58.3728 97.0564 62.5698 99.8368 66.5034C103.275 71.3691 105.577 77.2617 106.756 82.8173C107.909 88.257 108.615 94.5339 107.325 100.39C106.272 105.145 103.386 108.052 98.5835 109.126C95.3819 109.842 92.9174 109.616 91.1691 108.415C89.4208 107.214 88.1201 105.508 87.2829 103.296C86.4403 101.079 85.4977 97.7672 84.4445 93.3544C83.5282 89.505 82.5593 86.7667 81.5272 85.1501C80.4951 83.5334 78.8416 82.991 76.5772 83.5492C74.9185 83.9547 74.0812 85.0395 74.0548 86.7825C74.0285 88.5308 74.7605 91.4639 75.4293 95.0447C75.5609 95.7346 75.7926 96.9405 76.1402 98.436C77.3145 103.497 77.3934 107.604 76.593 110.442C75.7873 113.286 73.5546 115.171 69.8737 116.145C66.0243 117.162 63.0649 116.651 60.9585 114.581L60.9532 114.571Z" fill="white"/>
<path d="M130.011 99.0942C125.492 97.8726 120.016 94.713 116.777 91.3323C113.565 87.9726 110.727 82.2907 109.816 77.7672C108.894 73.1859 109.389 66.7562 111.101 62.3749C112.901 57.7672 116.988 52.4697 120.885 49.4523C125.74 45.6872 131.627 43.7441 137.525 42.475C142.317 41.4429 148.705 41.7904 153.465 43.3333C158.173 44.8604 162.006 47.1827 164.802 50.3581C167.599 53.5334 169.173 57.0563 169.673 60.7793C170.411 66.277 168.42 71.8115 163.907 75.1764C158.968 78.8625 152.975 81.0216 146.904 81.9484C142.396 82.633 138.478 82.7593 135.166 82.2327C138.231 85.8346 144.739 86.9668 149.015 86.1243C151.322 85.6714 153.986 85.0763 156.682 84.1074C157.688 83.7125 158.668 83.4492 159.621 83.3175C161.527 83.049 163.133 83.2912 164.423 84.0337C165.714 84.7762 166.461 85.9294 166.661 87.4776C166.993 90.0105 165.635 92.5013 162.649 94.6972C158.383 97.841 152.449 99.1627 147.325 99.7841C141.632 100.479 135.635 100.611 130.005 99.089L130.011 99.0942ZM136.698 69.247C138.157 69.5471 139.721 69.5629 141.401 69.2944C143.344 68.9837 144.982 68.3096 146.319 67.2722C147.657 66.2349 148.231 65.0606 148.031 63.7599C147.809 62.2907 146.972 61.1216 145.513 60.2633C144.055 59.4049 142.117 59.1574 139.7 59.5471C137.283 59.9368 135.492 60.9215 134.339 62.496C133.181 64.0706 132.749 65.6714 133.023 67.2986C134.013 68.3044 135.24 68.9521 136.693 69.2522L136.698 69.247Z" fill="white"/>
<path d="M195.45 112.243C192.186 110.779 190.385 108.547 190.063 105.513C189.779 102.807 190.627 100.495 192.628 98.5993C194.624 96.6983 197.299 95.5924 200.627 95.2923C201.222 95.2396 202.228 95.2185 203.592 95.2817C205.298 95.3607 206.904 95.3765 208.357 95.2607C212.022 94.9658 215.161 94.1443 217.773 92.7699C220.39 91.3955 221.943 89.7104 222.423 87.6988C221.09 88.5255 219.195 89.2628 216.735 89.9263C214.276 90.5898 211.627 91.0216 208.81 91.2533C202.665 91.7641 196.161 91.3323 190.469 88.8099C185.514 86.614 181.738 83.623 179.189 79.8894C176.646 76.1559 174.945 72.2275 174.661 68.5255C174.223 62.8489 174.634 56.7299 177.357 51.4007C179.616 46.9774 184.181 42.0116 188.42 39.4102C192.67 36.7983 198.847 34.6446 203.913 34.3075C205.73 34.1864 207.899 34.1232 210.358 34.1917C212.812 34.2654 214.882 34.4181 216.556 34.6393C217.146 32.3697 218.31 30.5582 220.037 29.2154C221.77 27.8726 224.471 27.1195 228.062 26.9142C234.297 26.5561 239.258 30.8531 241.559 36.3718C244.75 44.0284 246.167 52.6962 246.351 60.9742C246.456 65.5608 246.309 70.0053 245.951 74.1074C245.082 84.0916 241.406 94.7867 234.239 102.048C227.32 109.057 217.33 113.123 207.573 113.818C202.791 114.16 198.71 113.707 195.45 112.243ZM215.993 69.3312C217.894 67.346 218.773 65.0764 218.61 62.5276C218.447 59.9789 217.283 57.8146 215.092 56.0664C212.907 54.3128 210.406 53.5387 207.62 53.7546C204.834 53.9705 202.507 55.1132 200.653 57.1722C198.8 59.2364 197.999 61.5429 198.226 64.0916C198.452 66.6403 199.647 68.7467 201.785 70.4265C203.923 72.1064 206.34 72.8383 209.063 72.6277C211.785 72.4171 214.087 71.327 215.988 69.3365L215.993 69.3312Z" fill="white"/>
<path d="M266.898 85.5555C262.559 82.8383 257.952 77.7304 255.724 73.0647C252.986 67.3354 251.343 60.6529 251.406 54.4076C251.464 48.9731 251.743 42.9752 254.729 38.0042C257.13 34.0126 260.569 31.9694 264.987 31.9326C271.775 31.8746 276.756 35.6503 276.661 42.7014C276.64 44.1759 276.593 45.4871 276.498 46.5982C276.398 47.7093 276.303 48.6782 276.209 49.505C275.824 52.8015 275.629 55.4397 275.619 57.4197C275.598 61.0479 276.382 63.8178 277.957 65.724C279.531 67.6356 281.459 68.6045 283.749 68.6414C286.13 68.6782 288.11 67.7935 289.7 65.9768C291.29 64.1601 292.143 61.3954 292.243 57.6882C292.312 55.05 292.243 52.6119 292.033 50.3791C291.959 49.6366 291.901 48.5413 291.848 47.0932C291.796 45.6503 291.785 44.3075 291.817 43.07C291.985 36.356 297.241 32.0326 303.839 32.5697C308.067 32.912 311.664 34.8868 313.828 38.9047C316.498 43.8599 317.025 50.0158 316.546 55.466C315.719 64.8394 313.444 73.7388 307.009 81.1795C301.238 87.8567 291.532 90.5898 283.402 90.1632C277.794 89.8683 271.891 88.673 266.904 85.5503L266.898 85.5555Z" fill="white"/>
<path d="M355.64 90.8215C354.455 88.1253 354.129 84.1495 354.682 78.8994C355.087 75.0448 355.335 72.2696 355.424 70.5792C355.514 68.8889 355.329 67.4407 354.876 66.2296C354.418 65.0237 353.481 64.3444 352.059 64.2022C350.374 64.0337 349.079 64.4286 348.183 65.3765C347.288 66.3244 346.698 67.5987 346.419 69.1838C346.135 70.7741 345.845 73.1701 345.545 76.3718C345.177 80.3107 344.708 83.3965 344.155 85.624C343.597 87.8515 342.523 89.6156 340.938 90.9215C339.347 92.2275 336.988 92.7751 333.939 92.496C319.758 91.2164 321.748 66.9721 322.196 57.6672C322.48 51.743 323.265 45.4713 325.582 39.9737C327.315 35.8557 330.427 33.3702 334.75 32.6224C336.346 32.3328 337.794 32.238 339.084 32.3433C341.022 32.5013 342.738 33.0174 344.239 33.8968C345.74 34.7709 346.746 35.9031 347.272 37.2722C348.615 36.7351 349.948 36.3612 351.264 36.1559C352.58 35.9505 354.434 35.9663 356.82 36.2085C359.758 36.5087 362.47 37.446 364.934 39.01C367.399 40.574 369.037 42.575 369.853 44.9974C372.507 42.8225 375.134 41.3007 377.71 40.4213C380.279 39.5471 383.576 39.4576 387.346 39.8999C392.107 40.4634 398.094 43.2385 401.522 46.5719C404.982 49.9421 408.115 55.6977 409.252 60.3739C410.658 66.1611 410.627 72.4855 409.684 78.0832C408.757 83.5703 407.109 89.663 403.755 94.634C401.032 98.673 397.283 100.311 392.438 99.5471C389.205 99.0416 387.009 97.9199 385.83 96.1611C384.65 94.4023 384.071 92.3381 384.108 89.9737C384.144 87.604 384.481 84.1759 385.129 79.684C385.693 75.7662 385.798 72.8647 385.44 70.9795C385.082 69.0995 383.744 67.9884 381.448 67.6724C379.768 67.4407 378.594 68.1411 377.925 69.7578C377.262 71.3744 376.862 74.3707 376.167 77.9463C376.035 78.6361 375.808 79.842 375.582 81.3639C374.813 86.4981 373.381 90.3475 371.601 92.6961C369.816 95.0447 367.057 95.9768 363.302 95.5345C359.374 95.0658 356.83 93.5018 355.645 90.8057L355.64 90.8215Z" fill="white"/>
<path d="M425.434 39.8947C422.854 36.4402 421.906 32.6487 422.649 28.5097C423.375 24.4497 425.582 21.2585 429.31 18.9731C433.038 16.6877 437.235 15.9926 441.859 16.9142C446.382 17.8146 449.979 20.0632 452.591 23.6177C455.208 27.1722 456.045 30.9689 455.161 34.9974C454.26 39.1048 451.906 42.238 448.141 44.4286C444.381 46.6193 440.342 47.2722 435.971 46.3981C431.511 45.5081 428.009 43.3544 425.429 39.8999L425.434 39.8947ZM417.104 100.885C415.808 98.6677 415.224 95.5766 415.382 91.6271C415.608 86.0453 416.609 80.4476 417.572 74.9868C418.625 69.0205 419.874 64.3022 421.19 60.9373C422.507 57.5777 424.223 55.208 426.351 53.8494C428.473 52.4908 431.264 52.1432 434.697 52.8278C438.399 53.565 440.937 55.0869 442.291 57.3512C443.644 59.6156 444.207 62.7435 443.955 66.6824C443.597 72.2538 442.417 77.8304 441.29 83.2543C440.058 89.189 438.662 93.8704 437.283 97.1985C435.898 100.532 434.181 102.859 432.133 104.202C430.084 105.545 427.462 105.882 424.25 105.245C420.779 104.555 418.41 103.112 417.109 100.895L417.104 100.885Z" fill="white"/>
<path d="M481.664 57.0195C478.805 59.7314 475.74 61.6535 472.465 62.7962C469.189 63.9389 466.451 64.2496 464.218 63.7177C462.344 63.2701 460.959 62.4381 460.063 61.2164C459.168 59.9895 458.884 58.6572 459.216 57.209C459.458 56.1664 459.932 55.3449 460.637 54.7446C461.348 54.1495 462.375 53.4123 463.723 52.5434C464.597 52.0695 465.445 51.5113 466.272 50.8583C467.093 50.2054 467.741 49.5155 468.21 48.7783C465.382 47.3407 463.397 45.545 462.259 43.3807C461.122 41.2164 460.806 38.9679 461.338 36.6351C462.012 33.6598 463.839 31.2796 466.846 29.5208C469.848 27.762 473.234 27.3302 476.967 28.2412C481.348 29.3102 484.55 31.4586 486.546 34.6551C488.536 37.8462 488.858 41.9642 487.541 46.9879C486.498 50.9795 484.524 54.318 481.664 57.03V57.0195Z" fill="white"/>
<path d="M467.557 111.448C463.781 108.057 462.312 104.466 463.228 100.779C463.823 98.3781 465.166 96.7351 467.256 95.8557C469.347 94.9816 471.775 94.8973 474.523 95.6135C476.072 96.019 477.262 96.5455 478.099 97.1985C478.936 97.8462 479.758 98.6624 480.474 99.6314C481.011 100.353 481.474 100.927 481.88 101.295C482.285 101.664 482.828 101.938 483.507 102.127C485.297 102.622 486.356 102.275 486.693 101.085C487.004 99.9737 486.772 98.9889 485.993 98.1306C485.213 97.2722 483.786 96.0769 481.701 94.5814C479.773 93.2017 478.489 92.2696 477.883 91.7693C474.376 88.9679 471.954 86.1348 470.642 83.2543C469.331 80.3739 468.999 77.5724 469.673 74.8499C470.432 71.8115 472.364 69.2048 475.508 67.0669C478.657 64.9289 482.754 63.6177 487.699 63.0806C493.27 62.475 498.815 63.5018 504.044 64.8552C509.041 66.1506 513.575 68.3412 517.325 70.8689C521.069 73.3965 523.786 76.1401 525.471 79.0574C527.156 81.98 527.562 84.7341 526.724 87.3249C525.935 89.7578 524.486 91.3217 522.396 92.0379C520.305 92.7488 517.836 92.654 514.976 91.7641C513.849 91.4113 512.991 91.0374 512.401 90.6424C511.811 90.2475 511.069 89.6524 510.168 88.8573C509.658 88.357 509.11 87.8884 508.531 87.4566C507.951 87.0247 507.267 86.6877 506.482 86.456C505.782 86.2454 505.108 86.2823 504.46 86.5613C503.807 86.8404 503.391 87.2986 503.202 87.9305C502.849 89.1153 503.549 90.2686 505.287 91.3902C509.858 94.397 513.296 97.5408 515.619 100.779C517.936 104.018 518.404 107.662 517.135 111.653C515.487 116.84 510.906 120.195 505.703 121.264C498.389 122.77 491.216 121.438 484.207 119.652C478.315 118.152 472.169 115.582 467.557 111.438V111.448Z" fill="white"/>
</g>
<defs>
<clipPath id="clip0_7_242">
<rect width="541.174" height="480" fill="white"/>
</clipPath>
</defs>
</svg>
