<svg width="358" height="324" viewBox="0 0 358 324" fill="none" xmlns="http://www.w3.org/2000/svg">
<path d="M132.842 106.244C128.653 99.3864 125.196 92.1395 120.759 85.3828C113.724 74.6742 103.263 69.2669 100.215 67.1494C95.0655 63.5715 94.9291 66.0123 94.9291 68.4836C94.9291 69.5549 94.4894 70.5 93.2765 70.5555C92.0181 70.6111 91.6997 69.5246 91.4521 68.5846C90.4262 64.6378 92.1242 61.7319 96.0914 62.4445C99.3814 63.0358 105.507 66.1387 108.195 68.1248C117.706 75.1392 122.901 80.7537 128.071 89.2034C134.874 100.321 148.645 122.466 155.867 133.316C159.015 138.052 160.451 143.338 155.635 148.962C153.34 151.641 153.365 155.355 152.567 158.67C152.552 158.736 152.567 158.817 152.542 158.878C150.262 163.865 153.067 168.484 153.477 173.285C153.977 179.143 153.699 185.05 151.192 190.574C150.641 191.782 149.661 192.413 148.296 191.989C146.265 191.362 145.092 192.075 143.925 193.884C141.343 197.876 138.598 201.798 135.617 205.502C129.85 212.663 129.249 220.956 129.81 229.593C129.876 230.568 130.477 230.922 131.281 231.099C133.13 231.498 134.985 231.857 136.835 232.256C137.547 232.408 138.017 232.18 138.421 231.574C139.078 230.593 140.049 230.28 141.181 230.593C142.419 230.932 142.955 231.887 143.192 233.049C143.622 235.172 144.036 237.305 144.446 239.432C147.645 247.786 161.138 245.229 165.595 238.907C166.353 237.982 167.273 237.315 168.486 237.562C169.755 237.825 170.664 238.725 170.786 240.013C171.17 244.223 173.985 247.048 176.668 249.711C182.02 255.023 191.693 255.649 196.822 248.867C197.752 247.816 198.045 246.527 198.586 245.325C199.693 242.869 200.845 242.363 203.433 243.222C211.812 245.997 220.423 247.877 229 249.883C230.965 250.343 233.022 250.424 235.024 250.737C240.962 251.662 246.698 253.638 252.722 254.098C254.046 254.199 255.365 254.386 256.689 254.537C258.331 254.724 259.236 253.532 260.206 252.561C263.567 249.181 266.003 245.284 267.378 240.64C268.762 235.96 270.713 231.483 271.259 226.52C271.582 223.579 271.653 220.668 271.699 217.747C272.169 211.501 270.233 205.831 268.242 199.994C265.826 192.904 261.894 186.394 260.419 178.981C260.302 178.4 260.024 177.945 259.433 177.722C257.129 176.858 256.846 175.004 257.129 172.906C257.204 172.356 257.391 171.926 256.851 171.411C254.748 169.404 254.45 166.792 256.072 164.361C256.659 163.486 256.962 162.88 256.401 161.768C255.683 160.338 256.8 158.933 257.149 157.538C257.412 156.497 257.538 155.962 256.229 155.578C253.399 154.749 252.843 152.202 254.945 150.104C256.451 148.604 258.266 147.552 260.206 146.698C263.693 145.162 267.014 143.211 269.505 140.376C272.967 136.434 276.58 132.579 279.739 128.424C282.458 124.847 284.166 120.511 286.38 116.543C291.565 107.25 294.511 97.0415 297.978 87.091C300.752 79.1214 303.714 71.1771 305.826 62.96C306.852 58.9828 308.449 55.142 309.91 51.2861C311.987 45.808 312.513 40.1833 310.885 34.594C309.693 30.5006 308.54 29.1361 304.138 28.9744C295.896 28.6712 288.401 31.2334 281.457 35.4784C271.84 41.3659 263.527 48.8957 255.34 56.557C244.464 66.7299 234.892 78.0804 225.952 89.9463C217.492 101.17 211.18 113.683 204.828 126.171C202.179 131.381 197.869 134.832 191.713 135.444C187.61 135.848 183.511 136.374 179.579 137.693C178.189 138.158 176.84 138.754 175.496 139.34C174.283 139.871 173.196 139.724 172.63 138.517C172.095 137.379 172.514 136.323 173.601 135.611C173.717 135.535 173.843 135.474 173.964 135.404C175.192 134.676 176.577 134.332 177.583 133.291C180.317 130.461 176.698 121.824 173.803 117.029C169.264 109.504 157.56 96.2178 151.394 89.9564C140.423 78.8081 115.407 59.195 101.251 52.5394C97.557 50.801 89.754 48.0872 85.7111 47.506C80.9656 46.8238 78.6156 50.2097 78.3781 55.0662C78.2012 58.72 78.7167 62.2424 79.9447 65.5878C82.4666 72.4557 83.7755 79.6268 85.5645 86.6715C88.9555 100.033 95.0251 112.223 101.605 124.2C102.55 125.918 103.702 127.535 105.127 128.889C109.989 133.534 114.305 138.739 119.515 143.019C124.888 147.431 131.169 149.862 137.936 151.206C140.15 151.646 142.384 151.706 144.602 152.01C145.527 152.136 146.442 152.353 146.634 153.49C146.821 154.582 146.108 155.178 145.3 155.658C144.516 156.123 143.677 156.421 142.732 156.487C132.883 157.144 124.266 153.981 116.564 148.043C112.546 144.945 109.605 140.71 105.835 137.425C98.4313 130.982 94.2872 122.593 90.4616 113.916C88.0408 108.417 84.9783 103.222 83.4116 97.3245C81.3143 89.4106 79.0148 81.5573 77.3977 73.517C76.7103 70.0957 75.5177 66.7906 74.5979 63.4198C73.5467 59.569 73.9005 55.7282 74.1279 51.933C74.421 47.0714 79.6365 43.5086 84.4426 43.0437C89.845 42.5181 94.1154 44.7922 98.8356 46.5761C106.224 49.3657 112.597 53.8483 119.106 57.9771C127.061 63.0206 134.51 68.9434 141.747 74.9977L153.835 85.4586C161.411 92.4175 168.648 99.6391 174.894 107.907C178.568 112.773 181.474 117.888 183.834 123.416C184.779 125.625 185.163 127.985 185.669 130.304C185.957 131.623 186.639 132.068 187.887 131.851C190.091 131.472 192.299 131.103 194.503 130.704C196.797 130.289 198.541 128.677 199.137 126.787C200.719 121.764 204.09 117.761 206.329 113.127C209.613 106.325 213.288 99.6896 217.603 93.4636C220.671 89.0366 223.754 84.6096 227.276 80.5112C231.567 75.5182 235.59 70.2877 240.057 65.4615C245.379 59.7155 250.756 53.9999 256.81 48.9716C260.363 46.0203 263.537 42.6242 267.236 39.8346C274.903 34.0533 282.589 28.2922 292.07 25.6946C296.482 24.4868 300.97 23.8096 305.543 24.0471C311.78 24.3706 314.948 28.6864 316.591 34.4424C318.612 41.5175 317.506 48.2994 315.004 54.9955C312.917 60.5696 311.699 66.4015 309.89 72.0615C306.63 82.2496 303.406 92.4529 300.075 102.621C297.427 110.696 293.465 118.171 289.599 125.711C286.936 130.906 283.337 135.257 279.522 139.537C278.031 141.205 276.742 143.055 275.297 144.763C272.527 148.033 268.843 150.099 265.23 152.237C264.381 152.737 263.638 153.111 263.971 154.279C264.042 154.531 264.057 154.895 263.926 155.102C262.132 157.983 262.733 161.409 261.748 164.462C261.551 165.073 261.384 165.356 262.263 165.619C264.628 166.322 265.149 167.62 264.012 169.879C263.309 171.274 262.299 172.558 264.457 173.573C264.659 173.669 264.82 174.028 264.856 174.281C265.705 180.366 269.066 185.424 271.37 190.933C274.761 199.059 278.092 207.225 278.238 216.484C278.42 227.849 275.843 238.386 271.532 248.68C270.602 250.899 269.076 252.753 267.64 254.654C266.857 255.69 266.7 256.266 268.313 256.529C277.288 258.009 286.258 259.49 295.209 261.107C302.713 262.461 310.188 263.998 317.672 265.463C320.068 265.933 322.605 265.994 324.732 267.328C326.39 268.369 328.144 269.132 329.902 269.951C333.374 271.563 334.648 274.368 333.693 278.092C333.314 279.573 332.748 281.033 332.081 282.413C330.938 284.783 330.246 287.239 330.029 289.857C329.918 291.176 329.71 292.49 329.276 293.764C327.724 298.317 325.48 299.868 319.79 299.995C315.14 300.096 310.658 298.746 306.155 297.791C295.067 295.441 283.989 293.031 272.952 290.474C261.642 287.856 250.24 285.637 239.046 282.534C237.773 282.181 236.899 282.272 236.226 283.474C235.923 284.02 235.352 284.435 235.115 284.996C232.623 290.913 227.251 291.368 222.086 291.368C214.809 291.368 207.557 290.413 200.34 289.468C159.167 283.08 117.12 281.438 77.4634 267.626C64.4197 263.558 53.1751 256.569 43.6185 246.901C37.8269 241.044 33.0714 234.318 29.3771 226.975C27.0625 222.381 25.0056 217.585 24.1313 212.41C23.3884 208.004 25.8445 205.295 30.3171 204.876C35.7094 204.365 40.465 206.604 45.4378 207.786L119.43 227.94C124.034 229.669 124.347 229.507 123.963 224.726C123.19 215.043 126.414 206.892 132.534 199.574C135.086 196.522 137.138 193.055 139.554 189.876C141.221 187.678 141.292 185.52 140.296 183.034C137.957 177.202 139.998 170.157 145.062 166.377C145.871 165.771 146.199 165.094 146.406 164.154C147.463 159.373 148.327 154.542 149.853 149.877C150.646 147.451 151.819 145.182 153.542 143.328C155.261 141.478 155.17 139.714 153.845 137.86C148.327 130.148 137.795 114.36 132.852 106.269L132.842 106.244ZM234.089 257.135C233.836 255.937 233.492 255.442 232.3 255.366C222.885 254.775 213.929 251.773 204.732 250.035C203.483 249.797 202.907 249.999 202.21 251.055C199.39 255.321 195.574 258.57 190.409 259.01C184.87 259.485 178.23 258.752 173.818 255.225C171.109 253.057 169.259 250.105 167.299 247.285C166.864 246.659 166.465 245.84 165.53 246.639C156.878 252.849 142.237 252.046 138.927 240.463C138.523 239.23 137.896 238.598 136.663 238.341C134.197 237.83 131.746 237.269 129.3 236.678L35.6033 210.803C34.6077 210.51 32.7884 210.096 31.5856 209.762C28.8869 209.02 29.6197 210.702 30.4687 213.305C30.5344 213.507 30.6102 213.699 30.6759 213.901C33.4554 222.209 37.6399 229.699 43.0575 236.627C50.7695 246.497 60.4828 253.597 71.879 258.439C79.874 261.835 88.2834 264.21 96.7737 265.812C130.644 274.519 165.661 276.344 200.128 281.979C207.329 283.009 214.541 284.106 221.818 284.399C224.638 284.515 227.579 284.409 229.278 281.286M238.541 274.393C238.541 276.613 239.626 277.942 241.796 278.38C252.009 280.447 262.177 282.797 272.452 284.515C283.848 286.421 295.047 289.21 306.392 291.333C310.582 292.116 314.706 293.273 318.946 293.789C321.321 294.077 322.751 293.268 323.014 291.449C323.712 286.577 324.697 281.807 326.83 277.324C327.128 276.698 327.259 276.02 326.572 275.419C324.323 273.468 322.504 270.689 318.835 271.634C318.653 271.679 318.425 271.548 318.218 271.523C306.766 270.067 295.451 267.808 284.111 265.721C271.653 263.432 259.307 260.627 247.016 257.57C244.929 257.049 242.887 256.296 240.664 256.316C239.466 256.326 239.097 256.645 239.511 257.767C240.325 259.955 240.128 262.173 239.734 264.402C239.142 267.712 238.536 271.017 238.541 274.393ZM149.434 174.301C150.495 173.993 151.425 173.402 151.43 172.083C151.44 170.693 150.672 169.854 149.242 169.839C147.882 169.829 147.164 170.703 147.114 171.936C147.058 173.336 147.988 174.038 149.434 174.296V174.301Z" fill="white"/>
<path d="M247.605 124.574C247.605 124.018 247.696 123.442 247.59 122.901C245.998 114.653 247.544 106.507 249.03 98.5122C250.642 89.8351 252.411 81.1126 257.091 73.2694C259.335 69.5044 261.002 65.3857 263.711 61.8684C270.908 52.5192 279.378 44.5497 289.43 38.3438C291.987 36.7671 295.039 36.4993 297.95 36.474C300.588 36.4487 302.13 38.6167 303.388 40.6432C304.763 42.8668 305.061 45.3886 304.389 47.9356C303.974 49.5224 302.903 50.5483 301.19 50.3714C299.466 50.1946 298.668 49.0272 298.663 47.319C298.663 46 298.951 44.6659 298.309 43.3924C297.809 42.4019 297.182 41.9369 295.974 42.1542C293.887 42.5282 291.931 43.0538 290.172 44.3627C284.219 48.7846 278.387 53.2671 273.333 58.816C267.153 65.6081 262.377 73.2239 259.198 81.6988C256.631 88.5515 254.953 95.7529 253.983 103.05C253.457 107.002 253.134 110.979 252.795 114.957C252.416 119.449 253.371 123.881 253.472 128.359C253.583 133.544 254.311 138.673 255.079 143.798C255.14 144.212 255.196 144.631 255.216 145.051C255.292 146.527 254.908 147.79 253.235 147.992C251.633 148.184 250.763 147.138 250.43 145.718C249.712 142.655 248.883 139.598 248.459 136.49C247.923 132.548 247.519 128.571 247.6 124.574H247.605Z" fill="white"/>
<path d="M218.356 184.394C218.614 179.234 219.2 173.978 221.136 168.945C222.329 165.842 225.396 164.73 229.212 166.221C233.725 167.984 236.226 171.709 237.94 175.909C239.107 178.769 240.052 181.756 238.905 185.066C236.853 191.009 229.879 196.952 222.91 197.139C220.919 197.195 219.736 195.745 219.251 193.92C218.432 190.858 218.402 187.699 218.356 184.389V184.394ZM231.951 174.276C231.991 172.593 230.501 171.153 228.722 171.153C227.13 171.153 225.826 172.457 225.811 174.069C225.796 175.777 227.13 177.212 228.757 177.228C230.405 177.243 231.916 175.848 231.951 174.276Z" fill="white"/>
<path d="M177.076 213.159C175.489 213.28 174.382 213.634 173.674 214.907C173.124 215.893 172.103 216.1 171.102 215.716C170.137 215.347 169.859 214.478 169.914 213.477C170 211.83 170.283 210.177 169.914 208.252C168.914 209.212 168.312 210.066 168.419 211.279C168.525 212.492 168.191 213.533 167.094 214.144C165.887 214.816 164.8 214.281 163.769 213.609C163.203 213.24 162.758 212.618 161.96 212.674C161.616 213.27 162.182 213.568 162.394 213.952C162.88 214.842 162.991 215.701 162.182 216.429C161.303 217.217 160.272 217.151 159.564 216.317C157.811 214.245 156.022 212.173 154.566 209.894C153.566 208.322 155.051 206.665 157.169 206.801C159.003 206.917 160.701 207.615 162.405 208.242C163.749 208.737 164.669 208.621 165.492 207.206C166.508 205.462 167.812 203.885 169.07 202.293C170.47 200.525 172.158 200.706 173.209 202.667C174.094 204.31 174.478 206.074 174.341 207.923C174.245 209.212 174.721 209.576 175.918 209.136C177.379 208.6 178.88 208.307 180.446 208.454C183.246 208.712 184.515 211.264 182.958 213.593C182.301 214.579 181.538 215.504 180.76 216.393C179.987 217.278 179.052 217.935 177.818 217.262C176.535 216.565 176.484 215.418 176.828 214.17C176.899 213.917 176.959 213.654 177.081 213.179L177.076 213.159Z" fill="white"/>
<path d="M169.827 232.519C168.685 232.363 167.356 232.322 166.284 231.655C160.942 228.32 155.54 225.035 151.815 219.733C151.33 219.041 150.875 218.344 150.891 217.444C150.906 216.438 151.3 215.66 152.26 215.291C153.139 214.953 154.059 215.17 154.529 215.918C157.844 221.164 163.388 223.736 168.048 227.375C168.953 228.082 169.721 228.107 170.731 227.809C173.268 227.071 175.416 225.611 177.579 224.206C179.934 222.67 182.385 221.346 184.988 220.289C185.872 219.93 186.747 219.632 187.485 220.481C188.248 221.356 187.955 222.301 187.51 223.225C187.191 223.888 186.62 224.307 186.024 224.666C182.537 226.743 179.05 228.815 175.548 230.867C173.824 231.877 171.899 232.257 169.842 232.524L169.827 232.519Z" fill="white"/>
<path d="M223.334 154.144C221.778 153.896 221.449 152.941 221.828 151.677C222.182 150.51 223.016 149.605 223.885 148.796C227.625 145.314 231.405 141.878 235.176 138.431C236.055 137.627 237.081 136.945 238.097 138.036C238.997 139.007 238.38 139.997 237.632 140.821C233.528 145.329 228.944 149.352 224.608 153.628C224.229 154.002 223.754 154.068 223.334 154.144Z" fill="white"/>
<path d="M227.926 159.439C226.642 159.394 225.788 159.131 225.485 158.09C225.197 157.094 225.525 156.189 226.45 155.78C230.165 154.132 234.087 153.096 238.014 152.111C238.732 151.929 239.424 152.338 239.656 153.101C239.874 153.809 239.757 154.547 239.06 154.956C235.487 157.064 231.717 158.671 227.921 159.444L227.926 159.439Z" fill="white"/>
<path d="M211.431 221.133C211.361 222.286 210.678 222.912 209.577 222.902C208.409 222.897 207.813 222.124 207.873 221.007C207.924 219.981 208.571 219.344 209.627 219.344C210.754 219.344 211.462 219.885 211.436 221.133H211.431Z" fill="white"/>
<path d="M221.101 222.119C220.803 223.155 220.181 223.852 219.039 223.751C218.079 223.665 217.533 223.013 217.614 222.038C217.7 220.992 218.367 220.36 219.393 220.35C220.464 220.345 220.99 221.047 221.101 222.119Z" fill="white"/>
<path d="M211.268 228.567C212.233 228.597 212.911 229.138 212.976 230.038C213.047 230.952 212.405 231.64 211.475 231.68C210.47 231.726 209.701 231.084 209.666 230.083C209.631 229.163 210.277 228.592 211.268 228.562V228.567Z" fill="white"/>
</svg>
