<svg width="531" height="480" viewBox="0 0 531 480" fill="none" xmlns="http://www.w3.org/2000/svg">
<g clip-path="url(#clip0_7_302)">
<path d="M125.266 121.081C128.436 122.345 131.472 123.531 134.484 124.777C141.869 127.831 148.462 132.283 155.199 136.486C169.165 145.202 181.921 155.484 194.356 166.22C203.973 174.518 213.402 182.992 221.967 192.391C230.416 201.663 237.904 211.576 242.948 223.183C244.346 226.388 245.096 229.745 245.839 233.12C246.335 235.376 246.922 235.824 249.202 235.461C252.081 235.007 254.96 234.541 257.803 233.931C260.241 233.41 262.279 232.056 263.107 229.66C264.88 224.519 267.837 220.031 270.474 215.35C273.232 210.451 275.633 205.352 278.343 200.423C284.899 188.477 292.762 177.433 301.436 166.933C310.804 155.593 320.203 144.258 330.994 134.23C341.79 124.196 352.562 114.089 365.046 106.075C367.544 104.472 370.042 102.864 372.697 101.527C373.58 101.085 373.943 100.795 373.138 99.8455C371.33 97.7165 370.023 95.2669 369.231 92.5875C368.983 91.7589 368.632 91.638 367.852 91.6743C356.318 92.2488 346.979 87.5977 339.153 79.4627C337.925 78.1865 336.988 76.6623 336.322 75.0293C335.929 74.0676 335.518 74.0858 334.641 74.3882C323.712 78.0958 313.907 75.87 305.627 68.0616C299.192 61.9952 297.311 54.0114 297.97 45.3986C298.375 40.0942 299.766 35.0076 302.131 30.2295C303.994 26.4614 306.486 23.2074 310.224 21.1026C317.331 17.1046 326.778 20.159 330.189 27.5682C330.613 28.4875 330.897 28.4996 331.659 27.9613C338.373 23.2195 351.256 26.1529 353.457 37.554C353.56 38.0983 353.372 38.8241 354.449 38.4733C362.136 35.9512 369.455 37.2576 376.471 40.8321C383.112 44.2192 388.513 48.8704 391.078 56.1646C391.32 56.8541 391.719 56.9086 392.324 56.8481C402.829 55.8138 410.644 60.6404 417.303 68.1766C421.634 73.0817 423.696 78.7611 423.878 85.2147C423.884 85.4687 423.89 85.7167 423.878 85.9707C423.757 88.1239 423.757 88.1602 425.813 87.9727C436.434 87.0049 444.865 90.9001 451.246 99.3737C451.645 99.906 452.039 100.293 452.801 100.372C460.083 101.128 466.095 108.355 465.72 115.753C465.538 119.279 464.262 122.394 462.496 125.369C462.036 126.138 461.553 126.894 461.063 127.686C462.224 128.152 462.653 127.819 462.956 126.652C464.934 119.007 471.931 113.63 479.806 113.593C487.609 113.557 494.105 118.378 496.234 125.793C499.113 135.839 491.685 146.635 481.27 147.579C479.347 147.754 477.454 147.718 475.585 147.228C474.744 147.004 474.248 147.174 473.849 148.038C472.833 150.222 471.254 152.024 469.409 153.512C463.119 158.581 456.339 162.899 448.954 166.202C445.827 167.599 442.512 168.282 439.101 167.629C432.648 166.389 427.718 160.183 427.827 153.464C427.851 152.127 427.64 151.819 426.255 152.042C421.319 152.835 416.426 152.538 411.666 150.899C410.783 150.597 410.559 150.99 410.348 151.71C405.787 167.036 400.731 182.205 395.807 197.411C392.777 206.768 388.205 215.435 383.88 224.229C380.088 231.941 375.14 238.781 369.431 245.144C368.052 246.68 366.709 248.259 365.511 249.934C361.761 255.208 356.566 258.692 351.062 261.825C350.493 262.146 349.937 262.491 349.387 262.835C348.999 263.083 348.534 263.386 348.558 263.852C348.715 266.882 346.623 269.374 346.58 272.374C346.55 274.43 346.211 276.48 345.6 278.458C345.371 279.202 345.631 279.626 346.332 279.807C349.647 280.66 349.991 282.91 348.37 285.892C347.028 288.365 347.052 288.396 349.151 290.234C349.568 290.597 349.731 291.081 349.792 291.559C350.409 296.162 352.26 300.329 354.249 304.454C358.671 313.647 362.729 322.98 365.342 332.881C367.386 340.629 367.562 348.467 366.848 356.397C365.856 367.459 362.868 377.995 358.665 388.229C357.443 391.205 355.483 393.691 353.608 396.237C352.133 398.245 352.32 398.614 354.727 399.019C365.699 400.876 376.683 402.678 387.636 404.656C399.582 406.815 411.491 409.144 423.418 411.4C425.16 411.727 426.823 412.253 428.335 413.209C430.38 414.509 432.617 415.422 434.789 416.475C439.543 418.773 441.2 422.214 439.887 427.337C439.506 428.837 439.053 430.362 438.339 431.722C436.162 435.908 435.285 440.396 434.783 445.023C434.529 447.351 433.664 449.498 432.436 451.488C430.591 454.47 427.682 455.474 424.404 455.849C418.954 456.478 413.698 455.365 408.436 454.204C393.074 450.811 377.687 447.515 362.348 444.019C346.943 440.511 331.435 437.444 316.193 433.234C313.792 432.569 313.435 432.72 311.881 434.759C311.361 435.436 310.847 436.107 310.484 436.9C308.397 441.436 304.683 443.734 299.875 444.339C293.996 445.077 288.111 444.684 282.238 444.212C270.759 443.287 259.418 441.273 248.005 439.803C237.989 438.515 227.973 437.238 217.951 435.962C208.177 434.722 198.397 433.561 188.629 432.249C158.26 428.154 128.17 422.692 99.3433 411.957C69.374 400.797 48.4287 380.155 36.6103 350.367C35.4187 347.373 34.6446 344.252 34.076 341.082C33.1143 335.73 36.4833 331.738 42.0658 331.278C47.1041 330.867 51.8218 332.173 56.5757 333.486C70.4385 337.314 84.3072 341.119 98.1881 344.899C118.299 350.385 138.421 355.834 158.538 361.32C159.699 361.635 160.818 362.1 161.968 362.457C164.435 363.219 165.209 362.626 165.119 360.014C165.064 358.453 164.943 356.899 164.871 355.338C164.381 344.717 167.726 335.306 174.149 326.99C178.056 321.927 181.691 316.677 185.459 311.518C187.352 308.924 187.77 306.147 186.542 303.256C183.022 294.964 186.233 285.474 192.645 280.793C193.782 279.964 194.199 278.749 194.477 277.442C195.747 271.509 196.891 265.545 198.705 259.739C199.739 256.436 201.257 253.412 203.544 250.781C205.963 247.993 206.042 246.305 203.882 243.245C197.132 233.664 190.673 223.89 184.189 214.134C177.167 203.574 170.986 192.524 164.871 181.431C159.228 171.191 151.685 162.7 141.954 156.192C138.778 154.069 135.549 152.03 132.343 149.95C132.174 149.841 131.998 149.744 131.823 149.641C128.091 147.5 126.785 148.74 127.063 152.303C127.105 152.835 126.942 153.403 126.791 153.923C126.518 154.843 125.829 155.309 124.891 155.393C123.924 155.478 123.216 155.042 122.847 154.159C122.139 152.466 121.74 150.694 122.025 148.861C122.551 145.468 125.139 143.829 128.726 144.712C134.659 146.176 139.952 149.03 144.923 152.49C157.449 161.212 166.595 172.824 174.33 185.852C184.649 203.223 195.536 220.255 206.628 237.148C208.382 239.816 209.931 242.58 210.463 245.761C211.146 249.85 210.215 253.654 207.548 256.787C205.013 259.763 203.876 263.186 203.29 266.912C202.975 268.89 202.552 270.831 201.935 272.755C200.919 275.924 201.36 279.136 202.219 282.269C204.384 290.18 204.584 298.139 202.933 306.153C202.479 308.373 201.723 310.508 200.774 312.565C199.915 314.428 198.765 314.948 196.757 314.47C194.393 313.913 192.917 314.403 191.568 316.484C187.752 322.351 183.602 327.976 179.35 333.54C175.074 339.147 173.266 345.673 172.691 352.629C172.401 356.161 172.637 359.669 172.691 363.195C172.715 364.604 173.32 365.378 174.621 365.663C177.07 366.195 179.532 366.697 181.987 367.199C182.774 367.362 183.397 367.018 183.808 366.401C184.703 365.052 185.967 364.586 187.467 364.943C189.052 365.318 189.893 366.503 190.213 368.04C190.667 370.199 191.078 372.37 191.477 374.542C192.391 379.495 195.82 382.792 200.846 383.3C208.298 384.05 214.618 381.788 219.493 375.933C220.624 374.572 221.931 373.653 223.812 374.245C225.644 374.826 226.334 376.205 226.533 378.007C226.92 381.455 228.765 384.183 230.949 386.747C234.632 391.072 238.86 394.429 244.727 395.263C252.632 396.388 259.962 391.828 262.236 385.61C264.015 380.759 265.357 380.251 270.244 381.836C281.712 385.562 293.385 388.586 305.246 390.582C313.369 391.955 321.359 393.914 329.469 395.257C332.488 395.759 335.56 395.941 338.602 396.303C340.193 396.491 341.409 395.886 342.522 394.797C346.302 391.096 349.622 387.025 351.461 382.036C354.092 374.886 356.868 367.737 357.927 360.141C359.699 347.391 358.435 334.974 353.354 323.034C351.098 317.724 348.897 312.389 346.701 307.055C345.455 304.03 344.493 300.91 343.84 297.71C343.641 296.724 343.169 296.113 342.274 295.678C339.927 294.529 338.965 292.726 339.419 290.162C339.655 288.813 339.413 287.821 338.451 286.756C336.34 284.428 336.153 281.434 337.828 278.652C338.645 277.291 339.256 276.057 338.397 274.46C337.986 273.698 338.215 272.779 338.506 271.956C338.723 271.339 338.983 270.741 339.201 270.124C340.042 267.722 339.945 267.505 337.653 266.543C334.859 265.37 334.096 262.69 335.971 260.283C337.877 257.839 340.538 256.382 343.308 255.13C346.756 253.575 350.33 252.057 352.955 249.33C360.975 241.001 368.79 232.582 374.451 222.245C382.689 207.203 388.144 191.133 393.69 175.044C397.543 163.855 401.329 152.659 404.571 141.27C405.993 136.274 408.219 131.508 409.767 126.537C411.847 119.878 411.672 113.182 409.416 106.523C408.255 103.087 406.144 101.182 402.442 100.922C394.434 100.36 386.838 101.926 379.543 105.12C370.659 109.009 362.935 114.724 355.489 120.809C331.326 140.581 310.454 163.413 292.811 189.155C284.694 200.997 278.337 213.868 271.841 226.636C270.886 228.517 269.918 230.392 268.63 232.086C264.886 236.991 259.974 239.755 253.817 240.366C246.547 241.086 239.368 242.199 232.69 245.428C230.894 246.299 229.491 245.846 228.783 244.455C227.997 242.912 228.517 241.4 230.223 240.39C231.003 239.93 231.826 239.549 232.636 239.144C236.065 237.42 237.033 235.503 236.386 231.675C235.382 225.729 232.896 220.364 229.697 215.332C224.525 207.191 218.15 199.981 211.908 192.669C201.003 179.889 188.556 168.778 175.352 158.46C164.417 149.913 153.228 141.73 141.161 134.817C133.692 130.535 125.653 127.746 117.355 125.617C115.438 125.127 113.605 126.089 111.7 126.18C110.962 126.216 111.555 126.9 111.718 127.202C113.158 129.815 114.277 132.549 114.978 135.446C116.968 143.714 115.631 151.492 111.476 158.847C111.168 159.391 110.775 159.863 110.974 160.643C113.333 169.982 115.202 179.441 118.45 188.55C122.841 200.84 128.684 212.447 134.853 223.908C136.758 227.453 139.117 230.574 142.032 233.344C147.071 238.128 151.607 243.414 156.766 248.096C165.669 256.176 176.236 260.295 188.066 261.511C189.663 261.674 191.272 261.837 192.85 262.14C194.858 262.515 195.493 264.553 194.078 266.011C192.911 267.214 191.423 267.771 189.754 267.904C179.973 268.696 170.901 266.398 162.391 261.632C156.887 258.547 152.121 254.567 147.96 249.844C145.625 247.201 143.157 244.684 140.52 242.338C135.161 237.553 130.903 231.88 127.607 225.542C122.158 215.072 116.823 204.505 112.831 193.395C109.867 185.151 108.089 176.52 105.906 168.028C105.809 167.641 105.688 167.26 105.537 166.722C104.884 167.218 104.315 167.671 103.722 168.089C100.196 170.599 96.3978 172.123 91.9886 171.119C88.2507 170.266 85.4685 168.095 83.5875 164.762C83.4181 164.454 83.3032 164.115 83.1339 163.812C82.9887 163.552 82.8375 163.316 82.4323 163.48C81.8456 163.722 82.1903 164.03 82.3355 164.308C83.6903 166.861 84.4645 169.631 84.0956 172.455C82.7589 182.762 78.5553 191.502 69.6159 197.423C68.6905 198.034 68.4728 198.385 69.0957 199.425C72.513 205.183 71.1764 213.136 66.126 217.394C65.5212 217.902 65.3579 218.205 65.7692 218.967C68.9385 224.816 67.5534 232.068 62.491 236.326C62.0192 236.725 61.7289 236.961 62.1281 237.638C66.253 244.709 63.0656 255.148 53.098 257.876C48.8944 259.025 44.6182 259.073 40.3602 258.723C34.0942 258.208 27.9007 257.156 21.9189 255.136C19.046 254.168 16.3061 252.922 13.9775 250.914C8.47352 246.166 7.27596 237.426 11.407 231.445C12.0783 230.471 12.3868 229.503 12.4654 228.378C12.7194 224.773 13.923 221.519 16.1488 218.659C16.4815 218.223 16.7416 217.878 16.5541 217.195C13.8868 207.632 18.3444 196.322 29.3523 191.429C30.4954 190.921 31.6869 190.51 32.8845 190.135C33.7373 189.869 34.1305 189.693 33.4833 188.695C30.32 183.826 28.8745 178.443 29.1708 172.655C29.691 162.391 36.3018 150.482 48.6585 147.434C49.5295 147.216 50.4186 147.053 51.3923 146.841C50.0436 143.109 49.4024 139.335 49.6444 135.416C50.0194 129.277 52.2028 123.882 56.1765 119.218C56.8358 118.45 56.9991 117.718 56.9144 116.763C56.104 107.599 64.7047 99.5129 73.8558 100.813C74.9505 100.97 76.0815 101.043 77.1098 101.406C78.4827 101.89 78.5069 101.358 78.3255 100.263C77.5876 95.902 78.4888 91.9101 81.4827 88.6017C84.779 84.9606 88.7769 82.7651 93.8999 83.4485C94.8797 83.5816 95.1519 83.2792 95.0611 82.3417C94.4624 76.493 99.9421 68.7572 107.817 67.8318C110.097 67.5657 112.305 68.0133 114.609 68.6725C114.307 66.2653 114.174 63.9488 114.881 61.723C116.908 55.3602 121.238 51.6465 127.861 50.6909C128.883 50.5457 129.748 50.2494 130.613 49.6566C133.649 47.5579 136.976 46.2272 140.738 46.2514C141.288 46.2514 141.657 46.0821 141.978 45.6043C147.591 37.2576 160.062 33.3322 171.324 39.7072C173.423 40.8987 173.387 40.8745 173.871 38.5701C174.064 37.6507 173.508 37.4814 172.921 37.1669C163.655 32.2314 160.649 20.3828 166.588 11.764C170.459 6.15113 176.06 3.74995 182.701 4.72373C189.56 5.72775 194.308 9.77407 196.594 16.4212C198.149 20.9513 197.858 25.421 195.723 29.7395C195.493 30.2053 195.251 30.5803 195.826 31.0339C198.965 33.5318 200.761 36.9673 202.231 40.5721C204.753 46.7595 206.955 53.0558 208.261 59.6424C209.622 66.5193 207.384 72.5555 202.001 75.6341C198.034 77.9083 193.806 78.628 189.403 76.9406C188.629 76.6442 188.32 76.8136 187.866 77.4607C184.709 81.9062 180.421 84.4405 174.917 84.0171C172.915 83.8659 172.219 84.2772 171.361 86.0433C168.844 91.2085 162.427 94.2206 156.802 93.2105C156.046 93.0775 155.574 93.0956 155.206 93.9847C152.369 100.783 145.002 104.073 138.028 101.727C137.357 101.503 136.643 100.952 136.516 102.337C135.827 109.88 131.865 115.571 126.234 120.301C125.968 120.525 125.708 120.755 125.303 121.105L125.266 121.081ZM293.518 435.527C294.547 435.527 295.206 435.569 295.859 435.521C299.996 435.206 302.548 433.398 303.177 430.228C305.149 420.346 307.091 410.457 309.032 400.568C309.425 398.572 308.633 397.628 306.54 397.507C302.415 397.271 298.339 396.672 294.311 395.795C286.762 394.156 279.22 392.493 271.696 390.739C269.585 390.249 268.248 390.727 267.015 392.59C263.99 397.162 260.035 400.707 254.519 401.928C250.249 402.878 245.9 402.666 241.606 402.001C235.582 401.064 230.41 398.547 226.551 393.648C224.81 391.435 223.201 389.124 221.622 386.796C220.957 385.816 220.346 385.471 219.191 386.275C214.249 389.717 208.715 391.308 202.703 391.138C194.852 390.914 187.286 387.14 184.552 378.134C184.02 376.386 182.907 375.485 181.165 375.134C178.606 374.614 176.042 374.118 173.526 373.435C159.361 369.588 145.202 365.699 131.049 361.798C108.827 355.671 86.6177 349.52 64.4023 343.393C57.5919 341.518 50.7754 339.673 43.9529 337.834C41.6727 337.218 41.1344 337.786 41.7634 340.018C41.8058 340.163 41.8239 340.314 41.8662 340.459C46.8077 356.209 55.0879 369.951 66.749 381.618C77.6299 392.511 90.7487 399.727 105.186 404.747C113.261 407.553 121.601 409.325 129.887 411.346C148.008 415.755 166.328 419.045 184.782 421.616C194.483 422.971 204.215 424.102 213.935 425.347C223.842 426.618 233.755 427.851 243.65 429.212C253.055 430.507 262.436 431.958 271.835 433.313C279.154 434.372 286.49 435.206 293.512 435.515L293.518 435.527ZM315.244 421.331C315.244 422.239 315.195 423.146 315.256 424.047C315.425 426.533 315.631 426.817 318.087 427.319C332.234 430.228 346.326 433.398 360.564 435.841C376.537 438.581 392.287 442.398 408.194 445.458C412.434 446.275 416.614 447.369 420.92 447.835C423.738 448.138 425.329 447.146 425.765 444.412C426.775 438.043 428.105 431.777 430.888 425.904C431.238 425.16 431.093 424.513 430.531 423.981C429.061 422.614 427.628 421.186 426.049 419.946C424.525 418.749 422.716 418.344 420.775 418.785C420.533 418.84 420.279 418.924 420.049 418.894C416.523 418.38 412.991 417.884 409.477 417.315C399.527 415.7 389.626 413.832 379.713 412.041C362.021 408.848 344.481 404.989 327.038 400.658C324.171 399.945 321.353 398.971 318.371 398.795C316.375 398.674 315.988 399.17 316.587 401.027C317.282 403.18 317.3 405.364 317.004 407.59C316.393 412.168 315.25 416.68 315.25 421.331H315.244ZM96.5309 139.783C96.6156 139.922 96.7607 140.073 96.8031 140.254C97.4805 143.097 96.4462 145.559 95.0793 147.948C94.1236 149.623 92.7749 150.99 91.5229 152.43C89.7447 154.474 88.8798 156.839 89.3334 159.524C90.0108 163.498 94.3172 165.234 98.2244 163.177C101.376 161.52 103.414 158.786 105.21 155.835C108.815 149.926 110.218 143.605 108.567 136.783C107.121 130.813 103.638 126.053 99.3071 121.886C95.4845 118.214 91.2386 115.057 86.6661 112.372C82.4444 109.892 78.0835 107.739 73.1118 107.194C66.9486 106.523 62.866 112.97 64.4325 116.714C65.4184 119.061 64.8196 120.216 63.1986 121.547C62.6603 121.982 62.2793 122.605 61.8196 123.144C55.0153 131.194 55.0334 142.287 62.0132 150.113C66.6159 155.284 72.3558 158.073 79.3718 156.657C88.6378 154.788 93.2104 147.936 96.5309 139.776V139.783ZM183.548 69.4528C183.548 69.102 183.608 68.739 183.542 68.4003C181.51 58.4448 176.792 50.2796 167.726 45.1325C164.484 43.2938 160.891 42.6769 157.238 43.4753C151.806 44.6668 147.808 47.6123 146.442 53.328C146.29 53.9509 146.127 54.0658 145.558 53.7997C140.919 51.6526 136.964 53.0679 133.48 56.3098C132.482 57.2352 131.786 58.1182 130.268 57.2654C129.682 56.9388 128.805 57.1323 128.049 57.338C123.204 58.6323 120.7 62.9085 122.115 67.977C124.347 75.9426 128.623 82.8498 133.68 89.2973C135.458 91.5654 137.581 93.4283 140.236 94.7226C144.04 96.5734 150.228 93.392 149.423 88.4263C149.224 87.2166 148.819 86.0917 148.274 85.0211C146.937 82.378 145.552 79.7591 144.204 77.122C143.744 76.2269 143.381 75.2954 143.369 74.2551C143.363 73.0334 144.046 72.2652 145.056 71.7995C146.012 71.358 146.798 71.8055 147.482 72.5071C148.05 73.0878 148.534 73.7229 148.933 74.4305C150.022 76.3539 151.093 78.2893 152.23 80.1825C153.397 82.124 154.649 84.0171 156.579 85.3296C158.623 86.7146 160.679 86.3941 162.687 85.3114C164.659 84.253 166.159 82.9102 166.159 80.3337C166.159 78.4647 165.699 76.7591 164.968 75.1321C163.643 72.2047 162.137 69.356 160.794 66.4346C159.887 64.4568 160.068 63.5133 161.236 62.8601C162.639 62.0738 163.824 62.4488 165.101 64.0637C166.038 65.2552 166.8 66.5496 167.544 67.8681C168.802 70.0999 170.006 72.3741 171.584 74.4003C172.812 75.9668 174.397 77.1704 176.441 76.9889C179.731 76.6986 183.766 74.1523 183.536 69.4528H183.548ZM25.8564 219.3C20.5278 221.386 19.179 226.128 19.3242 229.957C19.3907 231.662 19.4452 232.709 17.9028 233.955C14.9271 236.356 15.0299 243.051 19.5359 245.834C20.6488 246.523 21.81 247.122 23.0439 247.557C30.1991 250.11 37.6143 251.259 45.1747 251.422C47.4609 251.471 49.7653 251.18 51.973 250.352C55.4266 249.057 57.0657 246.699 56.9326 242.997C56.8419 240.42 55.0274 238.606 51.6524 237.614C48.8702 236.797 45.9912 236.441 43.1727 235.781C41.8118 235.461 40.4328 235.176 39.3501 234.16C38.4429 233.301 38.4731 232.273 38.8239 231.245C39.1445 230.326 39.9792 230.041 40.8925 230.054C41.8421 230.06 42.7856 230.09 43.7412 230.229C47.3037 230.755 50.8117 231.759 54.4709 231.572C57.4769 231.42 59.5092 229.92 60.235 227.187C61.1846 223.6 60.3922 221.417 57.4769 219.717C55.729 218.701 53.7935 218.163 51.852 217.655C49.094 216.935 46.2331 216.644 43.5598 215.58C42.6344 215.211 41.9993 214.648 42.1203 213.554C42.2412 212.483 42.6888 211.636 43.7836 211.28C44.7634 210.959 45.7493 211.007 46.7654 211.128C50.2492 211.546 53.6605 212.471 57.1745 212.64C60.7309 212.816 63.1019 211.443 63.8761 208.001C64.7349 204.203 63.7067 201.372 60.1987 199.473C52.1302 195.106 43.5658 193.582 34.6385 196.28C28.185 198.227 23.9874 202.467 22.8866 209.386C22.2939 213.13 23.552 216.3 25.8564 219.3ZM421.991 133.559C420.049 134.037 418.555 133.523 417.14 132.724C416.505 132.367 416.245 132.379 415.978 133.148C414.866 136.317 413.747 139.48 412.785 142.704C412.477 143.75 412.64 144.27 413.783 144.639C420.049 146.69 426.2 146.333 432.182 143.72C440.075 140.272 446.456 134.744 452.238 128.496C455.008 125.502 457.337 122.182 458.77 118.269C460.796 112.734 454.918 106.015 449.625 108.126C448.869 108.428 448.645 107.944 448.343 107.478C447.478 106.184 446.662 104.854 445.73 103.602C438.472 93.7972 424.833 92.3517 415.628 100.39C415.101 100.85 414.587 101.182 415.071 102.114C419.045 109.765 419.601 117.851 417.89 126.18C416.976 130.607 416.97 130.625 420.944 132.972C421.204 133.123 421.47 133.268 421.984 133.553L421.991 133.559ZM110.509 118.831C111.222 118.777 112.22 118.843 113.23 118.68C118.232 117.845 122.152 115.184 125.406 111.464C129.633 106.644 131.097 101.091 129.482 94.8133C127.722 87.9545 123.506 82.7288 118.317 78.1805C116.454 76.5474 114.361 75.2712 111.924 74.618C108.458 73.6926 105.168 75.0837 103.22 78.374C101.593 81.1139 102.21 83.6663 104.738 86.5271C107.043 89.134 109.807 91.263 112.069 93.894C113.2 95.2065 114.162 96.5976 114.543 98.3153C115.232 101.412 112.517 104.164 109.402 103.589C106.474 103.045 104.763 100.916 103.033 98.8234C101.297 96.7306 99.7062 94.523 97.9159 92.4908C95.5994 89.8598 92.8837 89.1763 90.2406 90.3497C86.9927 91.7952 85.1177 94.6863 85.3717 97.9463C85.4746 99.3072 85.8133 100.632 86.412 101.854C89.666 108.495 94.6378 113.442 101.236 116.751C104.055 118.16 107.043 118.964 110.515 118.837L110.509 118.831ZM305.385 47.0377C305.319 57.5557 309.933 64.6867 317.947 67.7471C327.746 71.485 336.346 68.6907 342.05 59.8783C344.881 55.5053 346.508 50.6606 347.318 45.5498C347.79 42.5922 347.826 39.5983 346.381 36.8463C344.808 33.8584 342.074 32.8968 338.905 33.0298C336.074 33.1508 334.496 34.9955 333.54 37.4451C332.79 39.3685 332.403 41.3946 331.967 43.4087C331.338 46.2998 330.897 49.2574 329.203 51.7917C327.909 53.7332 325.81 54.5921 323.887 54.0235C321.861 53.4308 320.566 51.5739 320.464 49.203C320.385 47.2978 320.917 45.5256 321.534 43.7656C322.496 41.0196 323.79 38.3886 324.504 35.552C325.798 30.4109 323.627 28.0158 319.653 26.7698C316.581 25.8021 313.532 26.9029 311.216 29.9573C307.109 35.3766 305.724 41.6971 305.385 47.0377ZM60.9124 180.155C63.9063 176.169 65.8599 171.893 66.4345 167.048C67.0393 161.937 65.6966 157.661 61.4325 155.2C57.1866 152.75 52.729 152.502 48.2593 154.365C36.8824 159.119 32.6668 174.603 39.834 184.994C46.2997 194.362 58.862 196.691 67.6381 189.983C73.0816 185.822 75.7186 179.907 77.1763 173.381C77.6299 171.361 77.4485 169.389 76.6319 167.496C75.9606 165.941 74.7388 164.931 73.0513 164.883C71.3941 164.829 70.2873 165.851 69.5615 167.327C69.1562 168.149 68.9082 169.002 68.7268 169.885C68.2732 172.105 67.5716 174.228 66.3861 176.181C65.1341 178.238 63.4406 179.647 60.9184 180.155H60.9124ZM362.935 44.4127C361.58 44.4127 360.286 44.5458 358.997 44.8119C351.419 46.3966 348.31 53.0921 352.012 59.8722C352.737 61.2029 353.651 62.4004 354.624 63.5617C355.689 64.8318 356.862 66.0234 357.679 67.481C358.175 68.3641 358.223 69.3136 357.316 69.8882C356.457 70.4326 355.647 69.8338 355.066 69.2108C354.673 68.7874 354.461 68.1766 354.225 67.6201C353.3 65.4488 351.546 64.2875 349.368 63.6827C346.169 62.7936 343.344 64.481 342.57 67.6987C341.953 70.2814 342.885 72.4951 344.391 74.4547C348.425 79.7167 354.11 82.4324 360.249 84.3376C362.856 85.1481 365.542 85.3477 368.3 85.003C374.669 84.2106 379.132 76.7833 375.376 70.7592C374.064 68.6544 372.54 66.7371 370.84 64.9407C370.108 64.1665 369.473 63.229 370.483 62.3339C371.493 61.4387 372.473 62.0617 373.235 62.8843C373.846 63.5436 374.342 64.3177 374.923 65.0133C376.604 67.0213 380.185 67.9044 382.344 66.8641C384.473 65.8359 385.84 62.8057 385.362 60.1504C385.035 58.342 384.352 56.6606 383.257 55.1969C378.17 48.4107 371.257 45.066 362.941 44.4127H362.935ZM394.192 94.5411C394.344 94.5653 394.489 94.6137 394.634 94.6016C394.985 94.5774 395.336 94.5049 395.686 94.4867C401.323 94.1541 407.027 93.5371 411.745 97.7468C412.198 98.152 412.416 97.8919 412.694 97.5351C416.281 92.9746 418.017 87.9182 417.001 82.0635C415.519 73.5535 406.464 65.7875 398.584 64.2149C395.819 63.6645 392.995 63.5859 390.624 65.4367C387.001 68.2612 386.07 72.3136 390.588 75.5011C391.979 76.4809 393.545 76.9527 395.148 77.4184C397.912 78.2168 400.096 79.8679 401.68 82.251C402.775 83.8961 402.702 85.6925 401.662 86.9082C398.475 82.7893 394.561 79.6563 389.481 78.2168C382.822 76.3357 377.269 79.5413 376.035 86.1098C375.171 90.7065 377.469 94.2569 380.427 97.4685C380.699 97.7649 381.031 97.7951 381.394 97.6681C384.606 96.5371 387.902 95.7327 391.507 95.019C390.007 94.0391 388.586 93.3315 388.072 91.7287C387.618 90.3134 388.283 89.0674 389.626 88.892C392.59 88.5049 395.227 91.7468 394.192 94.5472V94.5411ZM202.056 61.9045C201.687 57.6344 199.939 52.7594 198.215 47.8905C197.011 44.4853 195.85 41.0499 193.733 38.062C192.336 36.0842 190.534 34.6266 187.951 34.8806C182.701 35.3887 180.004 38.8422 180.893 44.0136C182.199 51.6526 184.739 58.9166 188.127 65.8782C189.106 67.8923 190.467 69.6826 192.699 70.4507C197.526 72.1201 202.346 68.1947 202.05 61.9045H202.056ZM461.94 135.428C459.665 135.373 457.663 136.202 455.71 137.145C450.442 139.692 445.525 142.813 440.783 146.23C439.065 147.47 437.414 148.794 436.204 150.573C433.555 154.474 435.98 160.317 440.625 161.242C442.93 161.702 445.01 160.946 447.037 160.038C452.752 157.48 457.972 154.081 463.046 150.446C464.813 149.182 466.452 147.79 467.661 145.94C469.119 143.708 468.992 141.506 467.716 139.262C466.421 136.982 464.74 135.331 461.934 135.428H461.94ZM191.157 21.8163C191.157 15.9131 186.633 11.2196 180.947 11.2196C175.377 11.2196 170.822 15.7498 171.022 21.3263C171.246 27.5984 175.6 31.8444 181.28 31.9835C186.778 32.1226 191.157 27.4533 191.151 21.8102L191.157 21.8163ZM490.119 130.855C490.052 125.194 485.758 121.021 480.097 121.111C474.399 121.208 469.579 126.059 469.627 131.654C469.669 137.031 474.175 141.337 479.734 141.331C485.455 141.319 490.191 136.547 490.119 130.855ZM200.852 288.329C200.87 286.539 199.872 285.504 198.118 285.486C196.522 285.468 195.409 286.575 195.366 288.202C195.33 289.744 196.606 291.087 198.155 291.129C199.606 291.166 200.84 289.889 200.852 288.329Z" fill="black"/>
<path d="M468.526 269.942C465.986 268.866 463.881 267.62 462.363 265.612C459.569 261.91 458.922 257.761 460.016 253.321C460.264 252.311 460.21 251.459 459.889 250.455C457.288 242.344 456.702 234.299 461.051 226.521C461.359 225.965 461.28 225.662 460.827 225.257C455.141 220.171 452.039 213.699 450.986 206.247C449.232 193.8 456.526 179.617 471.151 175.982C485.843 172.328 499.977 181.226 503.643 196.401C505.385 203.604 504.653 210.469 500.733 216.868C500.401 217.407 500.225 217.727 500.939 218.157C506.921 221.798 509.758 227.537 511.1 234.076C512.504 240.916 512.122 247.678 509.074 254.12C507.707 257.017 505.856 259.581 503.473 261.723C502.832 262.297 502.645 262.642 503.274 263.404C504.744 265.182 505.548 267.323 505.983 269.555C506.183 270.577 506.612 270.952 507.562 271.2C512.201 272.398 516.731 273.904 520.645 276.783C527.763 282.021 530.685 289.224 530.4 297.897C530.243 302.821 529.148 307.411 526.034 311.409C519.556 319.708 506.28 317.694 501.744 310.121C501.133 309.099 500.8 308.887 499.965 309.97C498.508 311.857 498.435 311.803 499.723 313.901C507.332 326.276 503.776 343.453 491.982 351.304C484.264 356.439 474 356.209 467.141 350.76C465.623 349.556 464.383 348.117 463.397 346.453C463.131 346.006 462.932 345.661 462.26 345.74C456.641 346.381 451.252 342.764 449.637 335.796C446.529 322.423 456.291 305.73 469.403 301.895C470.903 301.46 472.421 301.164 473.982 301.03C474.665 300.97 475.706 301.303 475.585 299.893C475.482 298.762 475.79 297.613 473.964 297.583C472.016 297.553 470.056 297.389 468.145 296.881C462.593 295.406 458.897 290.779 458.613 285.051C458.286 278.579 461.008 273.045 468.532 269.954L468.526 269.942ZM523.318 297.559C523.39 289.545 519.761 283.968 512.401 280.781C508.784 279.214 504.992 278.228 501.121 277.581C500.056 277.406 499.693 277.085 499.687 275.997C499.675 273.777 499.391 271.575 498.483 269.513C496.578 265.206 490.288 264.384 487.27 267.94C485.595 269.918 485.02 272.277 484.47 274.66C484.27 275.513 483.986 275.827 483.103 275.767C480.835 275.615 478.572 275.767 476.323 276.009C473.97 276.257 471.641 276.656 469.494 277.726C466.349 279.299 464.909 282.456 465.635 286.097C466.24 289.109 468.175 290.688 471.817 291.014C474.823 291.287 477.835 291.516 480.847 291.686C482.05 291.752 482.661 291.994 482.437 293.44C482.038 295.986 482.25 298.569 482.558 301.121C483.218 306.534 487.076 309.208 491.969 307.738C494.159 307.079 495.266 305.409 496.07 303.474C497.28 300.577 497.764 297.492 498.199 294.402C498.272 293.887 498.096 293.21 499.058 293.446C501.871 294.141 504.828 295.714 505.209 299.573C505.457 302.089 505.935 304.551 507.296 306.746C510.217 311.458 517.524 311.766 520.784 307.29C522.907 304.381 523.378 301.03 523.318 297.547V297.559ZM487.07 246.91C487.336 245.144 487.627 243.511 487.542 241.854C487.457 240.197 487.355 238.539 487.01 236.906C486.363 233.858 485.129 231.1 483.06 228.723C478.355 223.316 469.016 225.221 466.276 232.346C463.815 238.751 464.595 245.102 467.692 251.15C468.163 252.075 468.296 252.68 467.679 253.551C466.851 254.719 466.476 256.073 466.5 257.537C466.548 260.591 467.782 262.63 470.323 263.628C473.02 264.692 475.337 263.87 477.399 262.049C477.822 261.674 478.034 261.136 478.869 261.414C481.143 262.176 483.526 262.164 485.897 262.079C495.683 261.735 502.379 256.382 504.375 246.826C505.729 240.318 504.901 233.979 501.145 228.294C499.608 225.965 497.588 224.12 494.619 223.896C490.748 223.606 487.609 225.306 487.899 229.914C488.008 231.675 488.437 233.289 489.308 234.783C490.409 236.67 490.802 238.715 490.869 240.85C490.972 244.061 489.732 246.106 487.064 246.916L487.07 246.91ZM471.278 322.629C469.125 326.361 467.849 329.972 467.565 333.818C467.202 338.711 467.595 343.459 472.234 346.532C476.843 349.586 483.46 349.248 488.292 345.836C498.187 338.863 500.691 321.232 488.08 312.256C479.546 306.184 468.877 307.278 462.218 315.002C457.833 320.083 456.139 326.252 455.97 332.857C455.928 334.58 456.478 336.244 457.561 337.647C459.551 340.242 462.738 339.867 464.069 336.897C464.444 336.062 464.613 335.191 464.68 334.272C464.891 331.447 465.339 328.671 466.833 326.191C467.776 324.619 469.046 323.385 471.278 322.629ZM497.709 203.931C497.721 200.756 497.044 197.713 495.732 194.858C492.562 187.963 487.385 183.427 479.685 182.768C472.452 182.145 466.307 184.77 461.946 190.752C455.994 198.911 456.799 209.005 462.502 217.195C464.534 220.11 467.063 222.408 470.661 223.231C474.81 224.181 478.597 221.429 478.651 217.292C478.693 214.219 477.756 211.522 474.889 209.888C473.359 209.018 472.373 207.778 471.998 206.042C471.484 203.659 472.476 201.372 474.544 200.278C476.945 199.002 479.655 199.358 481.337 201.179C483.054 203.03 483.224 205.274 481.814 207.524C481.494 208.032 481.137 208.522 480.835 209.048C479.147 211.957 480.296 216.705 483.139 218.525C484.276 219.251 485.528 219.59 486.883 219.366C488.643 219.076 490.276 218.435 491.697 217.334C496.07 213.935 497.57 209.235 497.721 203.943L497.709 203.931Z" fill="black"/>
<path d="M414.503 244.618C421.089 244.443 427.64 244.945 433.609 247.969C443.916 253.194 450.859 261.281 452.226 273.003C453.774 286.267 448.772 296.996 437.819 304.647C429.188 310.672 419.42 314.276 409.174 316.454C402.454 317.881 395.65 318.903 388.882 320.089C387.346 320.355 385.918 319.472 385.434 318.057C384.987 316.75 385.561 315.577 387.019 314.706C390.382 312.716 392.977 310.133 393.805 306.117C393.981 305.27 393.793 304.871 392.959 304.774C384.176 303.783 378.267 298.587 373.162 291.813C364.477 280.285 368.693 268.279 375.727 261.148C384.781 251.967 395.656 246.118 408.63 244.654C410.565 244.436 412.543 244.624 414.503 244.624V244.618ZM399.273 312.038C402.067 311.355 404.589 310.732 407.112 310.127C415.138 308.198 422.988 305.809 430.204 301.66C438.859 296.682 444.055 289.466 445.47 279.426C446.988 268.642 440.686 257.658 430.428 253.944C426.533 252.535 422.523 251.682 418.38 251.459C403.047 250.648 390.219 255.995 379.773 267.148C375.745 271.448 374.306 276.601 375.57 282.353C376.507 286.623 379.138 289.95 382.259 292.902C386.124 296.561 390.842 298.369 396.001 299.277C398.783 299.76 400.223 301.508 400.634 304.291C401.027 306.928 400.549 309.383 399.279 312.045L399.273 312.038Z" fill="black"/>
<path d="M326.863 228.941C327.28 225.687 326.548 222.288 326.246 218.858C325.629 211.83 326.494 204.899 327.74 198.004C329.046 190.752 330.298 183.494 332.216 176.363C333.976 169.824 336.516 163.631 339.951 157.788C341.476 155.194 342.83 152.502 344.27 149.859C347.814 143.327 352.786 137.914 357.818 132.555C364.852 125.067 372.818 118.698 381.515 113.249C385.344 110.847 389.644 110.478 394.023 110.726C395.197 110.793 396.285 111.41 397.102 112.22C400.846 115.952 402.836 120.301 401.457 125.702C400.912 127.843 399.582 128.865 397.501 128.853C395.366 128.841 394.041 127.583 393.933 125.4C393.878 124.244 393.969 123.083 393.92 121.928C393.781 118.825 392.324 117.767 389.306 118.317C385.707 118.976 382.882 120.978 380.046 123.113C370.671 130.148 361.883 137.75 354.788 147.186C346.236 158.55 340.889 171.324 337.732 185.103C335.724 193.848 334.871 202.739 334.036 211.649C333.54 216.971 334.157 222.191 334.562 227.447C334.859 231.257 334.871 235.086 335.258 238.896C335.718 243.445 336.407 247.963 337.018 252.493C337.205 253.896 337.121 255.263 335.96 256.231C335.016 257.017 333.879 257.168 332.699 256.66C331.629 256.2 331.06 255.323 330.788 254.277C329.24 248.35 327.891 242.38 327.437 236.247C327.262 233.888 327.068 231.529 326.869 228.959L326.863 228.941Z" fill="black"/>
<path d="M150.887 298.17C146.121 297.813 141.579 296.996 137.006 296.41C131.539 295.708 126.089 294.898 120.628 294.123C112.91 293.029 105.265 291.637 98.5512 287.343C93.0291 283.811 88.9162 279.148 87.6582 272.476C86.8961 268.442 88.0876 264.704 89.757 261.118C91.1057 258.202 93.0049 255.674 95.7629 253.908C98.8839 251.912 102.138 251.676 105.507 253.255C108.64 254.725 110.987 257.138 113.237 259.666C114.876 261.505 116.509 263.362 117.978 265.333C121.492 270.063 126.125 273.142 131.617 275.095C135.162 276.353 138.748 277.49 142.172 279.075C147.748 281.652 152.508 285.263 156.222 290.192C156.863 291.039 157.347 291.988 157.534 293.035C157.964 295.478 156.222 297.607 153.446 298.018C152.557 298.152 151.643 298.133 150.893 298.176L150.887 298.17ZM101.962 277.17C101.914 279.051 101.902 280.865 102.561 282.595C102.906 283.496 103.535 283.998 104.533 283.847C105.501 283.702 105.821 283 105.912 282.13C105.93 281.93 105.942 281.724 105.93 281.525C105.882 280.611 106.021 280.079 107.152 280.593C108.138 281.041 109.22 280.968 110.249 280.648C113.007 279.795 114.543 276.904 113.702 274.182C112.886 271.545 110.073 270.063 107.333 270.765C106.801 270.898 106.36 271.345 105.64 270.995C103.868 270.13 102.827 270.662 102.325 272.591C101.932 274.109 101.89 275.676 101.956 277.17H101.962ZM142.51 291.861C141.639 292.291 140.756 292.103 139.934 292.273C139.208 292.418 138.609 292.714 138.512 293.585C138.41 294.504 138.906 295.006 139.668 295.297C140.43 295.587 141.222 295.66 142.045 295.557C146.986 294.898 150.494 287.603 147.966 283.236C147.422 282.299 146.617 282.099 145.649 282.299C144.718 282.486 144.313 283.14 144.276 284.029C144.234 284.984 144.295 285.946 144.216 286.896C144.162 287.525 143.871 288.063 143.097 288.075C142.25 288.087 141.942 287.537 141.893 286.829C141.839 286.031 141.875 285.22 141.869 284.416C141.857 283.297 141.482 282.438 140.236 282.263C138.972 282.081 138.143 282.674 137.908 283.871C137.091 288.093 137.569 291.317 142.522 291.867L142.51 291.861ZM130.637 288.994C131.043 288.922 131.696 288.843 132.319 288.674C134.097 288.19 135.234 286.799 134.847 285.644C134.43 284.404 133.371 284.265 131.333 285.19C130.795 285.438 130.262 285.474 129.785 285.075C129.361 284.718 129.258 284.246 129.379 283.714C129.5 283.164 129.863 282.849 130.383 282.71C131.037 282.541 131.418 282.988 131.787 283.394C132.531 284.198 133.414 284.192 134.242 283.678C135.198 283.079 135.023 282.154 134.666 281.265C134.309 280.382 133.644 279.783 132.833 279.347C130.867 278.289 128.279 278.591 126.634 280.061C125.091 281.44 124.571 283.636 125.327 285.571C126.101 287.549 128.23 288.994 130.644 289.006L130.637 288.994ZM96.4766 269.319C96.0351 269.579 95.769 269.404 95.5089 269.265C94.5109 268.751 93.4585 268.581 92.9505 269.773C92.4666 270.91 93.2287 271.678 94.275 272.101C96.1924 272.87 98.1157 272.785 100.009 272.029C101.067 271.605 101.757 270.837 101.811 269.646C101.866 268.424 101.158 267.722 100.148 267.184C99.652 266.924 98.9806 266.906 98.6661 266.331C98.9262 265.926 99.2226 266.041 99.4947 266.132C100.45 266.446 101.503 266.718 101.92 265.509C102.331 264.323 101.6 263.483 100.541 262.993C98.6601 262.122 96.7488 262.085 94.8557 262.95C93.7609 263.452 92.89 264.196 92.8295 265.533C92.769 266.906 93.6702 267.577 94.7166 268.188C95.2851 268.521 96.1077 268.491 96.4645 269.313L96.4766 269.319ZM117.216 283.297C117.283 284.271 117.283 285.335 117.452 286.369C117.609 287.349 118.232 288.021 119.303 287.996C120.271 287.978 120.894 287.452 121.081 286.478C121.474 284.392 121.432 282.299 121.111 280.212C120.942 279.117 120.295 278.543 119.134 278.609C117.924 278.682 117.519 279.517 117.386 280.515C117.265 281.404 117.271 282.317 117.222 283.297H117.216ZM119.267 277.388C120.307 277.164 121.257 276.819 122.079 276.251C122.533 275.936 123.222 275.573 123.053 274.878C122.859 274.085 122.109 273.807 121.39 273.874C119.968 274.007 118.559 273.958 117.144 273.874C116.817 273.855 116.442 273.982 116.158 274.146C115.366 274.599 115.281 275.241 115.952 275.845C116.902 276.71 118.105 277.073 119.273 277.394L119.267 277.388Z" fill="black"/>
<path d="M20.0559 300.958C20.0801 290.264 29.0134 281.458 39.8036 281.482C50.7208 281.507 59.6481 290.458 59.5514 301.278C59.4546 312.093 50.364 321.099 39.6222 321.02C28.8743 320.942 20.0257 311.869 20.0499 300.958H20.0559Z" fill="black"/>
<path d="M467.51 390.207C467.347 401.632 458.571 410.039 446.97 409.882C436.506 409.737 427.851 400.422 428.123 389.348C428.396 378.413 437.928 370.12 448.73 370.501C459.127 370.87 467.655 379.61 467.504 390.207H467.51Z" fill="black"/>
<path d="M254.144 66.8339C248.948 66.9488 243.934 66.1988 239.271 63.7129C233.017 60.3803 230.005 53.8058 231.91 47.5216C232.322 46.1607 232.933 44.8906 233.864 43.814C234.348 43.2575 234.366 42.8644 233.937 42.2596C228.626 34.7415 230.543 25.1247 238.195 19.1187C244.63 14.0684 252.112 12.5926 260.089 13.1974C265.442 13.6027 270.493 15.018 274.799 18.3869C279.589 22.1308 281.821 26.9573 280.599 33.0964C280.242 34.9048 279.432 36.5258 278.222 37.9108C277.757 38.4431 277.69 38.7939 278.059 39.4531C282.668 47.7877 280.218 57.2412 272.174 62.3581C267.547 65.3036 262.388 66.4468 257.011 66.8278C256.061 66.8943 255.1 66.8399 254.138 66.8399L254.144 66.8339ZM254.579 59.9509C256.533 59.8843 258.499 59.9206 260.44 59.5819C264.19 58.9227 267.728 57.7856 270.692 55.2695C275.222 51.4167 274.926 43.8563 270.662 40.8382C268.672 39.429 266.555 38.3403 264.281 37.5237C263.531 37.2576 262.769 37.0157 262.031 36.7012C261.329 36.4048 260.797 35.8665 261.015 35.0621C261.251 34.1851 261.934 33.8161 262.872 33.8887C263.652 33.9492 264.311 34.3181 264.976 34.6508C267.021 35.685 269.138 35.7334 271.255 35.0318C273.432 34.306 274.478 32.6367 274.575 30.3323C274.69 27.4593 273.232 25.4574 271.103 23.8364C268.055 21.5078 264.487 20.5159 260.743 20.159C254.525 19.5603 248.58 20.4373 243.445 24.2658C240.009 26.8303 237.759 30.1569 238.6 34.7415C239.241 38.2374 241.612 40.4269 244.557 42.1084C246.656 43.3059 249.009 43.9349 251.174 44.9813C252.898 45.8099 253.557 46.8079 253.043 47.7696C252.559 48.6708 251.186 48.6042 249.723 47.5337C248.616 46.7232 247.485 46.0398 246.088 45.8341C243.414 45.441 240.36 46.7535 239.332 48.822C238.201 51.0901 238.836 53.957 240.886 55.9953C241.938 57.0416 243.197 57.7735 244.545 58.336C247.757 59.6787 251.132 60.0295 254.579 59.9569V59.9509Z" fill="black"/>
<path d="M316.302 301.242C316.345 305.119 314.681 308.361 312.377 311.294C308.149 316.671 302.808 320.246 295.889 321.196C292.913 321.601 290.942 320.433 289.962 317.567C289.26 315.504 288.946 313.351 288.825 311.198C288.341 302.549 289.067 294.057 291.68 285.716C293.53 279.819 297.909 278.755 302.954 280.636C305.288 281.507 307.314 282.91 309.056 284.712C312.891 288.674 316.266 296.361 316.302 301.242ZM306.389 291.099C306.359 288.964 304.441 287.174 302.222 287.21C300.147 287.246 298.399 289.067 298.466 291.123C298.538 293.289 300.353 295.085 302.433 295.037C304.556 294.988 306.413 293.137 306.389 291.099Z" fill="black"/>
<path d="M234.293 122.14C235.461 122.811 236.616 123.513 237.807 124.136C238.424 124.456 238.66 124.662 238.11 125.315C235.806 128.043 233.041 130.19 229.951 131.944C229.467 132.222 229.134 132.228 228.814 131.738C227.858 130.25 226.636 128.986 225.263 127.74C226.739 126.845 228.33 126.331 229.642 125.321C230.906 124.341 232.291 123.494 233.35 121.88C232.316 121.88 231.445 121.807 230.586 121.898C229.721 121.988 229.376 121.722 229.467 120.851C229.509 120.452 229.431 120.041 229.479 119.642C229.624 118.456 229.158 118.22 228.142 118.716C227.404 119.079 227.005 118.892 226.739 118.039C226.243 116.46 225.602 114.936 224.634 113.46C228.511 112.493 232.14 111.204 235.467 109.154C235.963 108.845 236.447 108.519 236.894 108.222C236.803 107.811 236.562 107.872 236.38 107.86C235.479 107.811 234.402 108.077 233.725 107.672C233.011 107.249 233.495 106.099 233.447 105.277C233.398 104.442 232.836 104.63 232.376 104.63C230.465 104.63 228.548 104.593 226.636 104.678C225.777 104.714 225.457 104.503 225.505 103.626C225.566 102.47 225.56 101.309 225.505 100.154C225.469 99.3375 225.783 99.1318 226.564 99.1681C228.427 99.2528 230.289 99.2044 232.152 99.283C233.072 99.3193 233.622 99.1318 233.441 98.0673C233.302 97.275 233.646 97.0089 234.439 97.0391C235.745 97.0936 237.058 97.0936 238.364 97.0391C239.205 97.0028 239.434 97.3173 239.259 98.0915C239.005 99.2165 239.441 99.6036 240.602 99.525C242.108 99.4282 243.62 99.4584 245.132 99.5189C245.93 99.5492 246.293 99.2649 246.124 98.4907C245.846 97.1843 246.511 96.9847 247.6 97.0573C248.652 97.1298 249.717 97.1298 250.769 97.0573C251.719 96.9907 252.069 97.3173 251.894 98.2427C251.713 99.2105 252.082 99.5915 253.104 99.5189C255.148 99.3617 257.21 99.3254 259.255 99.1681C260.126 99.1016 260.416 99.3738 260.368 100.239C260.307 101.394 260.313 102.555 260.368 103.71C260.404 104.521 260.108 104.714 259.321 104.684C257.21 104.612 255.094 104.636 252.977 104.63C252.426 104.63 251.888 104.527 251.858 105.41C251.834 106.233 252.342 107.358 251.61 107.817C250.987 108.21 249.953 107.932 249.1 107.956C248.918 107.956 248.743 107.993 248.211 108.047C252.311 110.823 256.594 112.22 261.166 113.236C260.283 114.948 259.491 116.618 258.952 118.39C258.68 119.285 258.1 118.825 257.634 118.656C256.793 118.341 256.394 118.384 256.406 119.49C256.43 121.88 256.37 121.88 253.987 121.861C253.394 121.861 252.795 121.861 251.936 121.861C254.174 124.886 257.217 126.216 260.561 127.486C259.297 128.914 258.172 130.359 257.241 131.932C256.932 132.452 256.575 132.192 256.225 132.017C252.989 130.426 250.146 128.303 247.654 125.696C247.007 125.019 246.946 124.619 247.848 124.148C249.021 123.531 250.134 122.805 251.198 121.855C249.608 121.855 248.017 121.886 246.432 121.843C245.61 121.819 245.561 122.285 245.574 122.902C245.634 125.769 245.41 128.648 245.779 131.502C245.906 132.5 245.749 133.008 244.582 132.93C243.281 132.839 241.963 132.863 240.656 132.93C239.743 132.972 239.386 132.724 239.537 131.738C239.985 128.835 239.676 125.908 239.785 122.992C239.816 122.182 239.628 121.801 238.715 121.843C237.269 121.91 235.818 121.861 234.366 121.861C234.342 121.958 234.318 122.061 234.293 122.158V122.14ZM251.779 116.714C249.777 115.48 247.866 114.307 245.979 113.025C245.495 113.98 245.658 114.9 245.58 115.783C245.513 116.521 245.84 116.738 246.541 116.726C248.289 116.69 250.031 116.714 251.779 116.714ZM239.41 113.116C237.638 114.307 235.872 115.432 234.045 116.521C235.727 116.666 237.36 116.66 238.993 116.666C239.447 116.666 239.791 116.545 239.767 116.001C239.719 115.069 239.924 114.101 239.416 113.109L239.41 113.116ZM242.785 105.833C243.638 105.833 244.497 105.852 245.35 105.833C245.646 105.827 246.148 106.263 246.142 105.489C246.136 105.011 246.172 104.6 245.477 104.612C243.62 104.642 241.757 104.63 239.894 104.612C239.356 104.612 239.217 104.854 239.223 105.349C239.223 105.9 239.549 105.845 239.918 105.839C240.874 105.827 241.83 105.839 242.785 105.839V105.833ZM245.162 112.486C242.374 110.013 242.102 110.031 240.59 112.486H245.162Z" fill="black"/>
<path d="M212.707 0.0544566C214.419 0.0544566 216.143 0.169375 217.842 0.0242151C219.608 -0.126993 220.939 0.568563 222.221 1.62097C225.886 4.62093 227.707 8.65515 228.463 13.1672C229.969 22.1852 227.29 29.8061 220.134 35.5822C215.441 39.3685 209.332 39.3261 205.304 35.7153C202.304 33.0238 201.161 29.6065 201.953 25.6328C202.135 24.7195 202.038 24.1207 201.354 23.3888C195.185 16.772 196.576 5.84874 204.149 0.840737C204.971 0.296389 205.806 0.00607015 206.816 0.04236C208.776 0.108891 210.741 0.0605049 212.707 0.0605049V0.0544566ZM222.596 17.4313C222.626 14.8607 222.058 12.4233 220.987 10.1309C218.919 5.71568 214.522 4.08868 209.852 5.86084C206.731 7.0463 204.772 10.5604 205.038 14.147C205.28 17.4252 207.397 19.7901 210.959 20.6248C211.933 20.8546 212.072 21.2659 211.661 22.0582C210.971 23.3888 210.245 24.7074 209.592 26.0561C208.981 27.3202 209.06 28.6025 209.852 29.7698C210.657 30.9492 211.824 31.3968 213.239 31.294C214.649 31.1912 215.846 30.6166 216.893 29.7214C220.667 26.4916 222.427 22.3304 222.59 17.4373L222.596 17.4313Z" fill="black"/>
<path d="M272.271 132.73C272.585 127.746 272.428 122.871 272.385 118.003C272.373 116.902 272.646 116.654 273.728 116.751C275.476 116.902 277.248 116.817 279.008 116.89C279.94 116.926 280.345 116.69 280.315 115.638C280.224 112.922 280.321 110.2 280.218 107.485C280.182 106.511 280.46 106.233 281.367 106.299C282.166 106.354 282.982 106.354 283.78 106.299C285.172 106.202 286.448 106.136 286.055 108.204C285.903 109.015 286.623 108.858 287.083 108.858C290.204 108.858 293.325 108.882 296.446 108.791C297.395 108.761 297.722 109.009 297.655 109.94C297.558 111.337 298.206 113.103 297.407 114.047C296.633 114.96 294.855 114.228 293.518 114.277C291.456 114.349 289.387 114.355 287.331 114.277C286.248 114.228 286 114.591 285.994 115.626C285.982 116.726 286.23 117.107 287.403 117.065C289.913 116.974 292.436 117.107 294.934 116.769C295.811 116.648 296.046 116.914 296.04 117.797C296.004 122.478 296.016 127.154 296.059 131.835C296.065 132.591 295.811 132.791 295.115 132.773C293.809 132.736 292.496 132.748 291.19 132.773C290.506 132.779 289.865 132.851 289.95 131.817C289.998 131.218 289.478 131.279 289.085 131.279C285.813 131.279 282.541 131.279 279.268 131.279C278.93 131.279 278.391 131.206 278.385 131.629C278.355 133.123 277.303 132.73 276.474 132.742C275.071 132.766 273.668 132.742 272.277 132.742L272.271 132.73ZM284.107 125.908C285.71 125.908 287.319 125.884 288.922 125.92C289.671 125.938 290.059 125.72 289.968 124.904C289.919 124.456 289.907 123.996 289.968 123.549C290.113 122.509 289.617 122.291 288.686 122.309C285.976 122.357 283.266 122.327 280.557 122.327C278.174 122.327 278.228 122.327 278.234 124.686C278.234 125.738 278.67 125.956 279.589 125.92C281.095 125.871 282.601 125.908 284.107 125.902V125.908Z" fill="black"/>
<path d="M224.985 336.135C223.775 337.157 223.231 338.355 223.243 339.867C223.273 343.514 220.817 344.935 217.648 343.127C217.086 342.806 216.584 342.371 216.021 342.05C215.664 341.845 215.271 341.336 214.842 341.826C214.485 342.232 214.963 342.558 215.15 342.879C216.209 344.681 216.13 345.752 214.83 346.713C213.668 347.578 212.549 347.476 211.515 346.272C209.453 343.865 207.39 341.464 205.606 338.833C204.844 337.708 204.124 336.564 205.043 335.252C205.975 333.921 207.396 333.601 208.926 333.8C210.88 334.054 212.725 334.708 214.563 335.379C217.551 336.474 218.09 336.298 219.741 333.661C221.047 331.562 222.596 329.645 224.162 327.746C225.959 325.575 228.081 325.817 229.485 328.302C230.682 330.407 231.148 332.687 231.045 335.113C230.96 337.078 231.39 337.345 233.247 336.77C235.418 336.093 237.589 335.524 239.9 336.123C242.791 336.873 244.061 339.595 242.616 342.232C241.618 344.046 240.275 345.619 238.805 347.076C237.952 347.923 236.942 348.238 235.775 347.73C234.535 347.185 233.894 346.272 234.009 344.887C234.033 344.639 234.045 344.385 234.033 344.137C233.997 343.55 234.723 342.788 234.166 342.461C233.567 342.111 232.727 342.522 232.037 342.812C231.269 343.133 230.676 343.665 230.265 344.385C229.497 345.709 228.366 346.121 226.932 345.685C225.39 345.213 225.088 343.986 225.13 342.582C225.178 340.871 225.245 339.165 225.275 337.453C225.281 337.072 225.378 336.655 224.985 336.147V336.135Z" fill="black"/>
<path d="M114.428 440.305C115.668 438.188 117.337 437.19 119.66 437.704C122.073 438.236 123.494 439.875 124.051 442.18C125.351 447.569 124.147 452.42 120.615 456.678C120.24 457.131 119.732 457.531 119.206 457.778C118.232 458.238 117.24 458.117 116.351 457.482C115.42 456.817 115.414 455.837 115.668 454.887C116.019 453.581 116.515 452.311 116.908 451.016C117.095 450.394 117.252 449.752 117.319 449.111C117.373 448.597 117.234 448.071 116.599 447.962C116 447.859 115.801 448.355 115.68 448.773C115.317 450.025 115.021 451.295 114.682 452.553C114.5 453.23 114.337 453.92 114.083 454.573C113.424 456.26 112.347 456.902 110.865 456.551C109.299 456.182 108.47 455.057 108.688 453.291C108.894 451.597 109.275 449.928 109.583 448.252C109.625 448.004 109.698 447.763 109.728 447.515C109.801 446.982 109.759 446.456 109.117 446.323C108.579 446.214 108.295 446.619 108.107 447.049C107.611 448.174 107.599 449.396 107.436 450.581C107.333 451.325 107.261 452.075 107.164 452.825C107.013 454.016 106.565 455.008 105.222 455.147C103.88 455.287 102.882 454.664 102.295 453.454C101.412 451.639 101.249 449.692 101.363 447.714C101.545 444.563 102.216 441.545 104.031 438.89C105.851 436.222 108.337 435.182 110.974 435.823C113.267 436.38 113.914 438.182 114.428 440.305Z" fill="black"/>
<path d="M267.093 132.894C265.726 131.182 264.408 129.609 262.738 128.394C262.4 128.146 262.46 127.831 262.648 127.462C265.224 122.478 265.43 117.053 265.533 111.616C265.605 107.993 265.841 104.37 265.515 100.753C265.436 99.8697 265.775 99.7427 266.531 99.8274C270.039 100.233 273.571 99.9423 277.091 100.081C278.252 100.124 278.688 99.7488 278.47 98.6419C278.15 96.9847 278.93 96.5432 280.424 96.7609C280.914 96.8335 281.428 96.7669 281.93 96.773C282.783 96.779 283.805 96.5069 284.452 96.8758C285.287 97.3476 284.506 98.406 284.585 99.2105C284.651 99.9725 284.96 100.118 285.625 100.106C289.448 100.033 293.282 100.287 297.087 99.8455C298.194 99.7185 298.502 100.015 298.436 101.085C298.357 102.386 298.393 103.704 298.423 105.011C298.442 105.688 298.2 105.827 297.534 105.785C289.339 105.295 281.131 105.712 272.936 105.519C271.484 105.483 271.539 106.293 271.557 107.2C271.636 111.779 271.533 116.351 270.922 120.9C270.365 125.055 269.386 129.071 267.093 132.9V132.894Z" fill="black"/>
<path d="M224.919 367.616C223.068 367.411 221.368 367.139 219.82 366.153C215.108 363.153 210.342 360.243 206.26 356.379C204.137 354.371 202.135 352.236 200.713 349.659C199.473 347.415 200.483 345.074 202.745 344.766C203.598 344.651 204.433 344.838 204.893 345.57C208.159 350.754 213.136 354.014 218.03 357.377C219.602 358.459 221.157 359.572 222.693 360.709C223.782 361.52 224.9 361.707 226.225 361.32C228.669 360.6 230.864 359.415 232.963 358.03C236.749 355.544 240.602 353.197 244.83 351.516C245.483 351.256 246.142 350.953 246.85 350.996C248.168 351.08 249.154 352.617 248.791 354.044C248.471 355.284 247.872 356.36 246.699 357.05C241.812 359.929 236.967 362.881 232.05 365.705C229.842 366.975 227.344 367.38 224.913 367.61L224.919 367.616Z" fill="black"/>
<path d="M101.448 441.261C101.448 447.206 97.0874 451.639 91.2326 451.627C85.7226 451.621 81.4223 447.2 81.4102 441.533C81.3981 435.793 85.9404 431.105 91.5169 431.099C97.0934 431.093 101.442 435.539 101.442 441.261H101.448ZM91.2387 445.906C93.1681 445.906 94.5713 444.363 94.6136 442.222C94.6499 440.365 93.1318 438.859 91.2629 438.902C89.3939 438.944 87.9968 440.577 88.0149 442.706C88.027 444.611 89.3335 445.912 91.2447 445.906H91.2387Z" fill="black"/>
<path d="M241.019 467.764C242.646 468.956 243.511 470.371 242.894 472.434C242.21 474.708 240.559 475.688 238.394 476.105C236.217 476.522 234.094 476.19 232.001 475.609C228.366 474.605 226.267 472.246 225.965 468.436C225.753 465.799 226.086 463.198 227.156 460.772C229.618 455.19 236.537 453.678 241.69 457.543C243.892 459.194 244.714 461.571 243.971 464.202C243.517 465.787 242.404 466.851 241.025 467.764H241.019ZM237.674 463.639C237.65 462.49 236.61 461.801 235.025 461.819C233.743 461.831 233.198 462.539 233.192 463.706C233.186 464.789 234.184 465.49 235.563 465.472C236.876 465.454 237.698 464.74 237.674 463.639ZM234.626 472.21C235.612 472.192 236.622 472.186 236.755 470.861C236.858 469.827 235.793 469.125 234.257 469.065C233.12 469.016 232.273 469.428 232.321 470.607C232.376 471.974 233.489 472.192 234.626 472.21Z" fill="black"/>
<path d="M167.272 460.839C166.31 460.506 165.427 460.283 164.611 459.908C163.782 459.526 163.213 458.843 163.407 457.857C163.613 456.811 164.145 455.952 165.33 455.831C166.328 455.728 167.326 455.752 168.324 456.012C170.012 456.454 171.729 456.853 172.117 458.922C172.552 461.208 172.002 463.252 170.133 464.722C166.915 467.25 163.431 466.748 160.008 465.26C156.095 463.567 154.147 460.077 154.582 455.934C155.127 450.781 158.084 447.067 162.385 446.16C165.863 445.428 169.111 445.948 171.935 448.174C173.375 449.311 174.3 450.769 173.671 452.783C173.012 454.887 171.119 455.631 168.796 454.579C167.562 454.023 166.413 453.315 164.961 453.393C163.213 453.484 161.925 454.385 161.344 456.067C160.649 458.081 160.994 459.666 162.355 460.724C163.697 461.77 165.596 461.855 167.272 460.839Z" fill="black"/>
<path d="M181.607 457.573C183.518 457.918 185.242 458.226 186.965 458.529C187.576 458.637 188.127 458.885 188.592 459.266C189.288 459.829 189.5 460.597 189.246 461.438C188.967 462.357 188.284 462.793 187.322 462.853C185.308 462.98 183.342 462.539 181.219 462.315C181.643 463.718 182.574 464.359 183.814 464.583C184.703 464.746 185.623 464.752 186.506 464.928C187.528 465.133 188.538 465.551 188.592 466.766C188.647 468.006 187.945 468.811 186.717 469.149C184.431 469.784 182.205 469.301 180.04 468.69C174.718 467.19 172.643 463.555 173.683 457.797C173.816 457.059 173.98 456.321 174.197 455.601C176.574 447.841 183.197 447.188 188.871 450.115C190.564 450.992 191.217 452.946 190.606 454.482C190.002 456 188.75 456.533 186.584 456.164C184.8 455.867 182.986 455.395 181.601 457.561L181.607 457.573Z" fill="black"/>
<path d="M132.18 454.01C132.627 455.686 133.849 456.164 135.228 456.43C135.869 456.551 136.523 456.599 137.164 456.72C138.325 456.944 139.383 457.428 139.341 458.789C139.299 460.113 138.416 460.912 137.109 461.02C132.803 461.389 128.95 460.337 125.878 457.137C125.394 456.635 125.043 456 124.904 455.293C123.96 450.369 124.698 445.839 128.43 442.24C131.357 439.416 137.89 439.64 140.817 442.464C142.099 443.704 142.468 445.367 141.76 446.71C141.119 447.92 139.764 448.379 137.95 448.041C136.631 447.799 135.301 447.291 133.97 447.974C133.474 448.228 132.851 448.549 132.924 449.123C132.99 449.656 133.68 449.402 134.091 449.492C135.41 449.795 136.746 450.037 138.053 450.381C139.668 450.811 140.478 451.773 140.327 452.94C140.164 454.174 139.226 454.821 137.454 454.682C135.724 454.549 134 454.246 132.174 454.004L132.18 454.01Z" fill="black"/>
<path d="M62.6724 436.488C62.6966 429.92 67.8981 424.924 74.025 425.583C78.5734 426.073 82.2084 429.866 82.027 433.906C81.9907 434.674 81.8092 435.394 81.4887 436.077C80.9806 437.16 80.1338 437.922 78.9363 437.886C77.7629 437.849 76.6923 437.39 76.1238 436.18C75.6399 435.146 75.3254 433.997 74.1702 433.416C72.7307 432.69 71.1279 432.932 70.0332 434.093C68.9203 435.273 68.5937 437.583 69.3497 438.884C70.015 440.021 71.7267 440.692 73.1964 440.347C73.8254 440.196 74.4424 439.966 75.0593 439.755C76.4202 439.289 77.5875 439.621 78.3556 440.807C79.1177 441.98 78.7246 443.154 77.8899 444.14C76.4625 445.815 74.527 446.208 72.4404 446.16C67.009 446.039 62.6603 441.744 62.6784 436.495L62.6724 436.488Z" fill="black"/>
<path d="M42.193 402.449C42.0357 408.213 35.2737 413.438 29.2677 412.434C25.427 411.793 23.1226 409.694 22.3243 406.108C21.8888 404.148 22.3122 402.309 23.2134 400.58C25.294 396.582 30.8342 393.576 35.4975 394.416C39.4531 395.13 42.3079 398.433 42.199 402.449H42.193ZM30.9129 407.221C32.7697 407.082 34.5539 406.065 35.7818 404.209C36.9793 402.394 35.5882 399.902 33.4048 399.92C31.0096 399.939 29.1589 401.076 28.0157 403.144C26.9452 405.086 28.3121 407.209 30.9129 407.215V407.221Z" fill="black"/>
<path d="M41.0737 428.65C35.3823 428.674 31.6021 423.503 33.344 418.083C34.8198 413.493 39.8157 409.852 44.5697 409.894C49.9829 409.942 53.751 415.005 52.245 420.2C50.8781 424.888 45.9366 428.632 41.0737 428.656V428.65ZM43.8378 415.61C41.7935 415.579 39.0234 417.696 38.5153 419.686C38.0133 421.652 39.4226 423.515 41.3157 423.388C43.3056 423.255 45.9426 421.168 46.5172 419.281C47.0616 417.491 45.7128 415.64 43.8378 415.61Z" fill="black"/>
<path d="M207.929 459.847C205.261 459.865 205.292 459.865 205.044 462.26C204.796 464.656 204.481 467.051 203.507 469.282C202.788 470.946 201.614 471.69 200.138 471.526C198.505 471.345 197.701 470.48 197.386 468.466C196.963 465.787 197.526 463.162 197.967 460.549C198.173 459.303 198.155 458.547 196.618 458.426C195.796 458.359 194.979 457.966 194.199 457.627C192.391 456.835 191.816 455.825 192.022 453.968C192.191 452.444 193.274 451.398 194.997 451.004C196.999 450.545 199.001 450.787 200.991 451.004C204.082 451.343 207.179 451.688 210.064 452.976C211.243 453.502 212.265 454.246 212.562 455.595C213.021 457.7 211.836 459.369 209.652 459.72C208.963 459.829 208.249 459.823 207.929 459.847Z" fill="black"/>
<path d="M266.053 459.357C269.942 459.533 273.595 459.847 277.097 461.02C279.359 461.776 280.315 462.956 280.315 464.692C280.315 466.355 279.492 467.45 277.896 467.903C276.668 468.248 275.41 468.266 274.152 468.2C273.323 468.157 273.051 468.418 272.997 469.288C272.821 471.889 272.561 474.496 271.787 477.006C271.152 479.063 270.075 479.982 268.491 480C266.852 480.018 265.884 479.268 265.46 477.647C264.789 475.089 265.394 472.555 265.569 470.008C265.575 469.911 265.618 469.815 265.636 469.712C266.023 467.498 266.017 467.516 263.815 466.924C263.047 466.718 262.285 466.44 261.553 466.119C260.223 465.538 259.569 464.522 259.63 463.028C259.696 461.498 260.416 460.494 261.807 459.901C263.247 459.291 264.765 459.448 266.047 459.357H266.053Z" fill="black"/>
<path d="M19.7719 382.054C21.5259 383.07 22.6569 382.084 23.9331 380.312C25.1246 378.654 27.2113 378.527 29.171 379.265C31.929 380.3 34.2213 384.11 33.8705 387.037C33.5318 389.85 31.427 391.791 28.554 391.761C27.4835 391.749 26.927 391.925 26.4492 393.043C25.0037 396.4 21.0118 397.586 17.8001 395.705C14.9937 394.054 13.5179 391.507 13.3304 388.277C13.1248 384.721 15.7981 382.036 19.7719 382.054ZM22.4513 389.003C22.4573 387.866 21.5198 386.935 20.3525 386.917C19.2215 386.898 18.2658 387.836 18.2417 388.991C18.2175 390.086 19.2154 391.09 20.3404 391.108C21.4352 391.126 22.4513 390.116 22.4573 389.003H22.4513ZM29.0742 385.84C29.0621 384.697 28.2879 383.911 27.2778 383.892C26.1952 383.868 25.3787 384.685 25.4512 385.785C25.5238 386.91 26.2073 387.491 27.302 387.515C28.4935 387.539 28.9169 386.735 29.0742 385.846V385.84Z" fill="black"/>
<path d="M-9.90036e-05 359.905C-0.0303406 358.78 0.441428 358.06 1.43335 357.6C2.49181 357.104 3.4051 357.286 4.18533 358.084C4.60267 358.514 5.01395 358.998 5.24984 359.536C5.7337 360.649 6.34458 360.824 7.42723 360.274C9.08446 359.433 10.8022 358.713 12.5139 358C13.2094 357.709 13.3727 357.443 13.034 356.681C12.0723 354.51 12.2235 353.094 13.3304 352.242C14.4856 351.359 16.3545 351.655 18.0057 353.058C18.5743 353.542 19.0884 354.117 19.5238 354.727C22.0278 358.235 21.3141 360.758 17.3646 362.433C14.7275 363.552 12.1026 364.689 9.45341 365.766C8.6006 366.11 8.17117 366.419 8.46149 367.495C8.80624 368.766 8.61874 370.03 7.17925 370.677C6.15708 371.136 5.09258 371.124 4.45146 370.187C2.3164 367.048 1.13094 363.479 -9.90036e-05 359.905Z" fill="black"/>
<path d="M252.608 478.234C250.842 478.216 249.1 477.925 247.382 477.557C245.598 477.169 244.806 476.244 244.866 474.865C244.926 473.534 245.676 472.845 246.935 472.712C247.896 472.609 248.211 472.192 248.283 471.194C248.435 468.944 248.749 466.7 249.076 464.462C249.209 463.549 249.178 462.998 248.102 462.696C246.765 462.315 245.816 461.462 245.997 459.841C246.178 458.22 247.303 457.567 248.689 457.506C251.61 457.379 254.513 457.652 257.295 458.613C258.584 459.061 259.376 459.998 259.134 461.516C258.892 463.041 257.821 463.651 256.467 463.664C255.42 463.676 255.07 464.081 255.015 465.036C254.864 467.547 254.58 470.038 254.065 472.5C253.975 472.936 254.065 473.178 254.549 473.413C256.672 474.454 257.102 475.143 256.709 476.595C256.382 477.786 255.245 478.337 253.213 478.276C253.013 478.276 252.813 478.246 252.608 478.234Z" fill="black"/>
<path d="M315.135 245.489C315.153 245.985 314.675 246.572 314.186 247.152C312.298 249.39 310.218 251.44 308.119 253.473C304.575 256.908 300.994 260.307 297.432 263.719C297.214 263.93 297.002 264.148 296.76 264.323C295.799 265.031 294.789 265.055 293.815 264.396C292.877 263.761 292.835 262.799 293.101 261.825C293.47 260.483 294.232 259.358 295.248 258.42C300.468 253.606 305.688 248.797 310.932 244.007C311.766 243.245 312.728 242.61 313.919 243.215C314.681 243.596 315.135 244.255 315.135 245.489Z" fill="black"/>
<path d="M90.2889 257.071C87.9906 260.948 86.5813 265.073 86.1882 269.525C83.7749 268.618 82.2447 266.059 82.7588 263.489C82.9644 262.46 82.5834 262.152 81.7971 261.85C77.6238 260.235 73.3899 260.102 69.0835 261.251C66.9606 261.819 65.2671 260.325 65.7025 258.245C65.9929 256.829 67.0029 256.14 68.4061 256.061C73.6258 255.777 78.6096 256.715 83.2729 259.128C84.0592 259.533 84.4946 259.551 85.1479 258.85C86.5934 257.295 88.1176 256.829 90.295 257.077L90.2889 257.071Z" fill="black"/>
<path d="M301.006 271.799C299.21 271.829 298.2 271.188 297.885 269.809C297.553 268.351 298.194 267.396 299.954 266.634C304.538 264.662 309.353 263.44 314.155 262.164C315.129 261.904 316.012 262.14 316.454 263.102C316.895 264.057 317.064 265.176 316.018 265.817C311.446 268.599 306.613 270.777 301.315 271.793C301.218 271.811 301.115 271.793 301.012 271.793L301.006 271.799Z" fill="black"/>
<path d="M60.6221 433.422C60.6221 434.855 59.6785 435.745 58.3298 435.527C55.7834 435.116 53.4004 434.196 51.1686 432.896C50.219 432.345 50.0436 431.493 50.3762 430.555C50.721 429.575 51.5133 429.158 52.5355 429.339C54.973 429.781 57.2895 430.567 59.4548 431.777C60.1443 432.164 60.6705 432.678 60.6281 433.422H60.6221Z" fill="black"/>
<path d="M216.56 463.984C218.568 464.045 220.564 464.232 222.493 464.879C223.467 465.206 224.053 465.823 223.987 466.869C223.914 467.97 223.243 468.659 222.154 468.732C219.469 468.92 216.844 468.478 214.316 467.589C213.469 467.293 213.1 466.555 213.239 465.647C213.384 464.704 213.91 464.081 214.902 463.99C215.453 463.942 216.009 463.984 216.56 463.984Z" fill="black"/>
<path d="M149.823 458.268C147.718 458.117 145.649 457.779 143.653 457.059C142.734 456.726 142.057 456.182 142.178 455.075C142.311 453.896 143.03 453.23 144.18 453.242C146.792 453.273 149.369 453.605 151.806 454.64C152.847 455.081 152.956 455.958 152.756 456.908C152.569 457.815 151.94 458.244 151.026 458.275C150.627 458.287 150.222 458.275 149.823 458.275V458.268Z" fill="black"/>
<path d="M18.0057 378.286C18.0722 379.187 17.6609 379.773 16.8928 380.106C16.1549 380.427 15.3989 380.469 14.8243 379.792C12.9312 377.56 11.8546 374.941 11.28 372.104C11.1046 371.239 11.6429 370.677 12.3687 370.32C13.1126 369.951 13.911 369.951 14.4432 370.61C16.2638 372.872 17.3767 375.479 18.0057 378.286Z" fill="black"/>
<path d="M279.674 352.532C279.674 353.947 278.646 354.981 277.23 355C275.761 355.012 274.877 354.159 274.853 352.707C274.835 351.195 275.73 350.294 277.267 350.294C278.797 350.294 279.674 351.11 279.674 352.538V352.532Z" fill="black"/>
<path d="M289.756 356.1C288.414 356.07 287.543 355.193 287.597 353.929C287.658 352.544 288.662 351.558 290.023 351.558C291.335 351.558 292.375 352.58 292.327 353.844C292.285 355.048 291.051 356.131 289.756 356.1Z" fill="black"/>
<path d="M279.522 366.522C278.149 366.522 277.248 365.62 277.266 364.266C277.285 363.038 278.083 362.348 279.456 362.379C280.786 362.403 281.718 363.286 281.7 364.495C281.682 365.651 280.75 366.522 279.522 366.522Z" fill="black"/>
<path d="M77.4366 141.518C73.9347 141.5 71.3883 138.748 71.4004 135.004C71.4125 131.605 74.2008 129.065 77.86 129.113C81.3015 129.156 83.8539 131.908 83.8237 135.537C83.7995 138.996 81.0838 141.537 77.4306 141.518H77.4366Z" fill="black"/>
<path d="M430.434 110.037C434.057 110.055 436.627 112.62 436.603 116.206C436.585 119.938 434.008 122.545 430.379 122.509C426.708 122.472 424.071 119.835 424.101 116.23C424.132 112.571 426.738 110.019 430.434 110.037Z" fill="black"/>
<path d="M55.4509 170.556C55.336 172.256 54.3985 174.089 52.4872 175.389C51.5256 176.042 50.6788 175.951 49.8441 175.099C47.0014 172.201 49.4631 167.623 51.955 166.982C54.0235 166.45 55.457 167.635 55.4509 170.556Z" fill="black"/>
<path d="M478.881 243.033C478.929 243.457 478.826 244.104 478.548 244.709C478.197 245.477 477.707 246.069 476.782 246.166C475.802 246.275 475.119 245.803 474.641 245.035C473.74 243.572 473.679 241.975 474.157 240.378C474.393 239.586 474.925 238.963 475.82 238.793C476.794 238.606 477.459 239.078 478.01 239.803C478.687 240.693 478.863 241.715 478.875 243.033H478.881Z" fill="black"/>
<path d="M484.603 329.839C484.56 331.986 483.278 334.042 481.597 334.677C479.843 335.343 478.306 334.544 477.944 332.712C477.478 330.371 478.173 328.32 479.764 326.609C480.98 325.296 481.96 325.357 483.212 326.609C484.107 327.504 484.627 328.702 484.603 329.839Z" fill="black"/>
<path d="M404.293 276.874C407.372 276.275 409.622 277.345 410.208 279.565C410.934 282.299 409.791 285.021 407.317 285.716C404.16 286.605 401.305 285.873 400.38 282.438C399.63 279.638 399.769 276.88 400.725 274.164C400.918 273.614 401.275 273.087 401.662 272.646C402.207 272.029 402.969 271.884 403.731 272.18C404.517 272.489 404.904 273.136 404.795 273.976C404.674 274.902 404.475 275.815 404.287 276.874H404.293ZM406.821 281.416C406.64 280.817 406.392 280.206 405.557 280.23C404.699 280.255 404.251 280.799 404.275 281.585C404.299 282.323 404.826 282.807 405.575 282.771C406.325 282.74 406.713 282.214 406.815 281.416H406.821Z" fill="black"/>
<path d="M422.717 286.611C420.394 286.629 419.057 285.553 418.658 283.43C418.531 282.74 418.398 282.033 418.447 281.343C418.513 280.333 418.295 279.753 417.146 279.686C416.215 279.632 415.344 279.365 415.38 278.101C415.416 276.88 416.311 276.644 417.201 276.505C418.053 276.378 418.519 276.093 418.537 275.138C418.549 274.618 418.846 274.091 419.045 273.583C419.323 272.876 419.904 272.652 420.612 272.67C421.344 272.688 421.846 273.021 422.069 273.74C422.13 273.934 422.281 274.134 422.251 274.309C421.961 276.093 423.013 276.486 424.471 276.547C425.342 276.583 425.892 277.085 425.934 277.962C425.977 278.773 425.469 279.238 424.731 279.468C424.398 279.571 424.059 279.674 423.721 279.728C422.916 279.843 422.088 279.873 422.33 281.089C422.523 282.051 421.773 283.454 423.63 283.575C424.501 283.629 425.003 284.198 425.033 285.063C425.063 286 424.344 286.333 423.588 286.533C423.255 286.623 422.892 286.599 422.711 286.611H422.717Z" fill="black"/>
<path d="M430.899 281.428C431.922 282.293 432.781 282.015 433.603 281.906C434.196 281.827 434.77 281.821 434.982 282.468C435.212 283.176 434.722 283.581 434.153 283.884C432.442 284.791 429.182 284.156 427.869 282.662C426.502 281.107 426.448 278.519 427.742 276.789C429.103 274.974 431.607 274.327 433.7 275.234C435.303 275.93 436.252 277.63 435.932 279.245C435.69 280.466 434.42 281.331 432.678 281.422C432.182 281.446 431.68 281.422 430.893 281.422L430.899 281.428ZM432.617 278.44C432.545 277.841 432.103 277.811 431.625 277.799C431.093 277.781 430.658 278.011 430.633 278.507C430.609 279.13 431.244 279.105 431.649 279.142C432.091 279.178 432.581 279.099 432.611 278.446L432.617 278.44Z" fill="black"/>
<path d="M414.787 280.164C414.799 281.113 414.787 282.057 414.521 282.994C414.255 283.92 413.662 284.271 412.737 284.24C411.823 284.21 411.352 283.654 411.212 282.855C410.88 280.92 410.813 278.966 411.206 277.025C411.382 276.154 411.914 275.634 412.888 275.634C413.862 275.634 414.309 276.13 414.551 277.025C414.829 278.065 414.781 279.111 414.787 280.158V280.164Z" fill="black"/>
<path d="M392.669 278.325C392.59 279.124 392.529 279.976 392.427 280.817C392.306 281.761 391.84 282.426 390.812 282.48C389.808 282.535 389.221 282.027 389.04 281.035C388.683 279.093 388.665 277.158 389.052 275.222C389.251 274.218 389.868 273.801 390.884 273.861C391.888 273.922 392.275 274.593 392.408 275.428C392.554 276.365 392.59 277.321 392.675 278.325H392.669Z" fill="black"/>
<path d="M410.559 272.12C410.59 270.765 411.648 269.676 412.918 269.706C414.164 269.737 415.259 270.904 415.259 272.204C415.259 273.589 414.079 274.757 412.761 274.678C411.467 274.605 410.529 273.517 410.559 272.12Z" fill="black"/>
<path d="M390.733 267.946C392.015 267.964 393.031 269.065 393.031 270.426C393.031 271.781 392.009 272.9 390.739 272.924C389.42 272.954 388.446 271.853 388.465 270.36C388.489 268.92 389.42 267.928 390.733 267.952V267.946Z" fill="black"/>
<path d="M438.109 284.162C436.978 284.15 435.974 283.146 435.986 282.045C435.999 280.944 437.033 279.934 438.14 279.934C439.265 279.934 440.214 280.926 440.208 282.081C440.202 283.261 439.277 284.174 438.103 284.162H438.109Z" fill="black"/>
<path d="M108.772 277.212C107.938 277.043 107.406 276.68 107.418 275.827C107.43 274.98 107.938 274.515 108.73 274.539C109.45 274.557 109.897 275.005 109.934 275.791C109.976 276.668 109.438 277.007 108.766 277.218L108.772 277.212Z" fill="black"/>
</g>
<defs>
<clipPath id="clip0_7_302">
<rect width="530.419" height="480" fill="white"/>
</clipPath>
</defs>
</svg>
